<?xml version="1.0" encoding="UTF-8" standalone="no"?>
<!DOCTYPE svg PUBLIC "-//W3C//DTD SVG 1.1//EN" "http://www.w3.org/Graphics/SVG/1.1/DTD/svg11.dtd">
<svg width="100%" height="100%" viewBox="0 0 134 30" version="1.1" xmlns="http://www.w3.org/2000/svg" xmlns:xlink="http://www.w3.org/1999/xlink" xml:space="preserve" xmlns:serif="http://www.serif.com/" style="fill-rule:evenodd;clip-rule:evenodd;stroke-linejoin:round;stroke-miterlimit:2;">
    <g transform="matrix(35.7417,0,0,35.7417,0,27.6633)">
        <path d="M0.127,-0.719L0.13,-0.719C0.149,-0.719 0.164,-0.714 0.175,-0.703C0.179,-0.701 0.181,-0.701 0.182,-0.701C0.196,-0.709 0.209,-0.714 0.22,-0.714C0.234,-0.714 0.25,-0.708 0.267,-0.697C0.272,-0.696 0.275,-0.696 0.275,-0.696C0.281,-0.698 0.286,-0.699 0.291,-0.699L0.295,-0.699C0.313,-0.699 0.335,-0.689 0.359,-0.67C0.374,-0.655 0.382,-0.648 0.383,-0.648C0.408,-0.645 0.425,-0.639 0.435,-0.632C0.457,-0.615 0.468,-0.598 0.468,-0.583C0.468,-0.579 0.47,-0.576 0.475,-0.573C0.505,-0.554 0.52,-0.532 0.52,-0.506C0.52,-0.491 0.512,-0.471 0.497,-0.448C0.502,-0.43 0.505,-0.418 0.505,-0.413C0.505,-0.395 0.493,-0.376 0.47,-0.356C0.459,-0.35 0.454,-0.344 0.454,-0.336C0.454,-0.314 0.434,-0.299 0.395,-0.291C0.389,-0.288 0.384,-0.283 0.38,-0.277C0.367,-0.256 0.347,-0.246 0.32,-0.246C0.315,-0.247 0.306,-0.249 0.294,-0.251C0.292,-0.251 0.288,-0.248 0.28,-0.241C0.272,-0.236 0.263,-0.233 0.252,-0.233C0.243,-0.235 0.237,-0.235 0.235,-0.235C0.228,-0.235 0.225,-0.232 0.225,-0.226L0.225,-0.215C0.225,-0.205 0.221,-0.191 0.211,-0.171L0.211,-0.17C0.211,-0.168 0.215,-0.161 0.223,-0.149C0.238,-0.121 0.246,-0.098 0.246,-0.081L0.246,-0.079C0.246,-0.059 0.236,-0.043 0.216,-0.031C0.213,-0.01 0.204,-0 0.19,-0C0.172,-0 0.151,-0.005 0.127,-0.016L0.126,-0.016C0.111,-0.009 0.099,-0.006 0.09,-0.006L0.085,-0.006C0.074,-0.006 0.059,-0.011 0.041,-0.021C0.033,-0.026 0.028,-0.036 0.024,-0.051C0.024,-0.058 0.021,-0.064 0.015,-0.068C0.006,-0.078 0.001,-0.086 0.001,-0.09C0,-0.094 0,-0.097 0,-0.1C0,-0.11 0.005,-0.124 0.014,-0.14C0.008,-0.153 0.005,-0.165 0.005,-0.175C0.005,-0.195 0.011,-0.215 0.023,-0.237C0.017,-0.251 0.013,-0.262 0.013,-0.269C0.013,-0.28 0.018,-0.298 0.027,-0.32L0.027,-0.322C0.027,-0.324 0.024,-0.331 0.018,-0.341C0.013,-0.353 0.011,-0.363 0.011,-0.372L0.011,-0.375C0.011,-0.384 0.014,-0.395 0.019,-0.408C0.007,-0.423 0,-0.436 0,-0.447L0,-0.451C0,-0.465 0.006,-0.48 0.018,-0.497C0.019,-0.5 0.019,-0.501 0.02,-0.501C0.01,-0.517 0.006,-0.53 0.006,-0.538L0.006,-0.543C0.006,-0.554 0.013,-0.568 0.026,-0.585C0.028,-0.588 0.029,-0.59 0.029,-0.591L0.029,-0.593C0.023,-0.605 0.02,-0.616 0.02,-0.625L0.02,-0.628C0.02,-0.638 0.022,-0.65 0.025,-0.665C0.025,-0.668 0.021,-0.673 0.014,-0.678C0.012,-0.68 0.011,-0.682 0.011,-0.684L0.011,-0.684C0.011,-0.691 0.017,-0.699 0.029,-0.708C0.034,-0.71 0.038,-0.711 0.041,-0.711L0.043,-0.711C0.056,-0.71 0.063,-0.709 0.067,-0.709C0.076,-0.709 0.09,-0.712 0.109,-0.718C0.114,-0.719 0.12,-0.719 0.127,-0.719ZM0.046,-0.628C0.046,-0.62 0.051,-0.609 0.059,-0.598C0.061,-0.595 0.062,-0.591 0.062,-0.587C0.062,-0.578 0.055,-0.569 0.04,-0.559C0.035,-0.554 0.033,-0.548 0.033,-0.542L0.033,-0.539C0.033,-0.533 0.038,-0.525 0.049,-0.513C0.054,-0.506 0.056,-0.502 0.056,-0.499C0.056,-0.494 0.051,-0.488 0.041,-0.48C0.033,-0.472 0.029,-0.465 0.029,-0.457L0.029,-0.453C0.029,-0.445 0.036,-0.435 0.049,-0.423C0.052,-0.419 0.054,-0.416 0.054,-0.412C0.054,-0.408 0.05,-0.399 0.041,-0.386C0.039,-0.381 0.039,-0.378 0.039,-0.375L0.039,-0.374C0.039,-0.358 0.045,-0.345 0.058,-0.334C0.061,-0.331 0.063,-0.327 0.063,-0.322L0.063,-0.322C0.063,-0.318 0.059,-0.311 0.051,-0.301C0.045,-0.292 0.042,-0.283 0.042,-0.276L0.042,-0.271C0.042,-0.263 0.047,-0.255 0.057,-0.25C0.059,-0.247 0.06,-0.243 0.061,-0.239C0.061,-0.235 0.056,-0.228 0.047,-0.218C0.037,-0.204 0.032,-0.19 0.032,-0.173C0.032,-0.165 0.038,-0.156 0.049,-0.148C0.051,-0.145 0.052,-0.143 0.052,-0.141L0.052,-0.141C0.052,-0.135 0.046,-0.126 0.034,-0.113C0.03,-0.108 0.028,-0.103 0.028,-0.099C0.028,-0.093 0.035,-0.086 0.047,-0.076C0.05,-0.073 0.052,-0.065 0.052,-0.051C0.052,-0.048 0.056,-0.043 0.064,-0.037C0.075,-0.032 0.082,-0.029 0.086,-0.029C0.094,-0.029 0.1,-0.035 0.105,-0.046C0.109,-0.049 0.112,-0.05 0.114,-0.05L0.117,-0.05C0.121,-0.05 0.132,-0.046 0.151,-0.037C0.168,-0.031 0.178,-0.029 0.181,-0.029C0.185,-0.03 0.188,-0.032 0.188,-0.035L0.188,-0.038C0.184,-0.048 0.182,-0.055 0.182,-0.057C0.183,-0.062 0.187,-0.064 0.194,-0.064L0.208,-0.064C0.216,-0.066 0.22,-0.073 0.22,-0.084L0.22,-0.087C0.22,-0.108 0.209,-0.131 0.188,-0.158C0.185,-0.159 0.182,-0.159 0.18,-0.159C0.18,-0.159 0.175,-0.156 0.166,-0.15C0.164,-0.149 0.163,-0.149 0.162,-0.149C0.158,-0.151 0.156,-0.154 0.156,-0.159C0.156,-0.163 0.16,-0.167 0.167,-0.173C0.174,-0.179 0.184,-0.188 0.195,-0.203C0.198,-0.21 0.199,-0.216 0.199,-0.222C0.199,-0.233 0.193,-0.246 0.182,-0.261C0.178,-0.268 0.17,-0.281 0.157,-0.298L0.156,-0.303L0.156,-0.304C0.156,-0.305 0.156,-0.305 0.158,-0.305C0.177,-0.295 0.188,-0.288 0.19,-0.284C0.195,-0.279 0.21,-0.273 0.237,-0.266C0.24,-0.265 0.244,-0.265 0.249,-0.265L0.258,-0.265C0.264,-0.265 0.268,-0.271 0.268,-0.283C0.268,-0.295 0.27,-0.3 0.275,-0.3C0.275,-0.301 0.276,-0.301 0.277,-0.301L0.278,-0.301C0.281,-0.301 0.289,-0.295 0.303,-0.282C0.313,-0.277 0.321,-0.275 0.328,-0.275C0.338,-0.275 0.349,-0.281 0.359,-0.293L0.36,-0.297L0.36,-0.309C0.36,-0.318 0.366,-0.322 0.378,-0.322L0.382,-0.321L0.39,-0.321C0.403,-0.321 0.414,-0.324 0.424,-0.332C0.427,-0.334 0.429,-0.337 0.429,-0.341C0.429,-0.347 0.423,-0.351 0.41,-0.352C0.393,-0.352 0.385,-0.356 0.385,-0.363C0.385,-0.367 0.39,-0.369 0.4,-0.369C0.423,-0.374 0.438,-0.376 0.445,-0.376C0.457,-0.376 0.468,-0.385 0.477,-0.402C0.478,-0.406 0.479,-0.41 0.479,-0.414L0.479,-0.418C0.479,-0.424 0.475,-0.434 0.468,-0.448L0.466,-0.453C0.466,-0.457 0.471,-0.465 0.481,-0.477C0.49,-0.489 0.494,-0.5 0.494,-0.51L0.494,-0.514C0.494,-0.526 0.48,-0.541 0.453,-0.559C0.444,-0.561 0.44,-0.567 0.44,-0.577C0.44,-0.591 0.43,-0.605 0.411,-0.617C0.403,-0.62 0.397,-0.622 0.394,-0.622L0.393,-0.622C0.386,-0.621 0.382,-0.617 0.382,-0.611L0.387,-0.596L0.387,-0.594C0.387,-0.589 0.385,-0.587 0.381,-0.587L0.38,-0.587C0.375,-0.587 0.368,-0.597 0.361,-0.618C0.352,-0.638 0.345,-0.649 0.338,-0.652C0.323,-0.666 0.311,-0.673 0.302,-0.673L0.301,-0.673C0.295,-0.673 0.287,-0.669 0.276,-0.663C0.273,-0.662 0.271,-0.662 0.269,-0.662L0.267,-0.662C0.261,-0.662 0.253,-0.667 0.24,-0.679C0.234,-0.683 0.228,-0.685 0.222,-0.685C0.212,-0.685 0.199,-0.678 0.183,-0.664C0.182,-0.664 0.173,-0.657 0.155,-0.643L0.149,-0.641C0.144,-0.641 0.142,-0.643 0.142,-0.647C0.142,-0.652 0.147,-0.659 0.159,-0.668C0.16,-0.67 0.161,-0.671 0.161,-0.673L0.161,-0.675C0.161,-0.681 0.156,-0.686 0.146,-0.69C0.144,-0.691 0.142,-0.691 0.141,-0.691L0.139,-0.691C0.12,-0.691 0.095,-0.685 0.065,-0.673C0.053,-0.661 0.046,-0.646 0.046,-0.628ZM0.203,-0.601L0.204,-0.601C0.21,-0.601 0.222,-0.594 0.24,-0.581C0.244,-0.579 0.246,-0.578 0.247,-0.578L0.248,-0.578C0.248,-0.578 0.252,-0.58 0.259,-0.584C0.262,-0.585 0.265,-0.585 0.267,-0.585C0.273,-0.585 0.281,-0.581 0.29,-0.573C0.294,-0.571 0.298,-0.571 0.302,-0.57L0.334,-0.575C0.344,-0.573 0.349,-0.569 0.349,-0.561C0.349,-0.555 0.346,-0.54 0.339,-0.515C0.339,-0.511 0.338,-0.506 0.338,-0.502L0.338,-0.483C0.338,-0.476 0.335,-0.471 0.329,-0.469C0.315,-0.465 0.305,-0.458 0.3,-0.449C0.291,-0.434 0.286,-0.427 0.285,-0.426C0.278,-0.424 0.274,-0.423 0.272,-0.423C0.27,-0.423 0.264,-0.426 0.254,-0.433C0.25,-0.435 0.246,-0.436 0.242,-0.436L0.24,-0.436C0.232,-0.436 0.215,-0.429 0.19,-0.417C0.169,-0.394 0.158,-0.383 0.156,-0.383L0.154,-0.383C0.153,-0.383 0.152,-0.384 0.152,-0.386C0.152,-0.398 0.156,-0.411 0.165,-0.422C0.167,-0.429 0.174,-0.439 0.185,-0.453C0.188,-0.459 0.19,-0.465 0.191,-0.47C0.191,-0.477 0.184,-0.484 0.171,-0.493C0.17,-0.496 0.169,-0.499 0.169,-0.502L0.169,-0.503C0.169,-0.507 0.174,-0.514 0.184,-0.525C0.187,-0.533 0.188,-0.538 0.188,-0.542C0.188,-0.551 0.182,-0.559 0.171,-0.564C0.17,-0.566 0.169,-0.568 0.169,-0.57L0.169,-0.573C0.172,-0.583 0.179,-0.591 0.19,-0.598C0.196,-0.6 0.2,-0.601 0.203,-0.601ZM0.216,-0.547L0.216,-0.544C0.216,-0.542 0.217,-0.539 0.217,-0.537C0.217,-0.529 0.215,-0.52 0.209,-0.508L0.209,-0.504L0.218,-0.487C0.221,-0.472 0.224,-0.465 0.227,-0.465L0.231,-0.464C0.232,-0.464 0.237,-0.465 0.244,-0.466C0.252,-0.464 0.257,-0.463 0.259,-0.463L0.262,-0.463C0.266,-0.463 0.276,-0.47 0.291,-0.483C0.301,-0.49 0.306,-0.495 0.306,-0.498L0.312,-0.53C0.312,-0.536 0.303,-0.539 0.287,-0.54C0.281,-0.541 0.277,-0.541 0.275,-0.541C0.266,-0.539 0.258,-0.538 0.252,-0.538C0.241,-0.538 0.231,-0.542 0.222,-0.549L0.22,-0.549C0.218,-0.549 0.216,-0.549 0.216,-0.547Z" style="fill-rule:nonzero;"/>
    </g>
    <g transform="matrix(35.7417,0,0,35.7417,17.8054,29.1644)">
        <path d="M0.374,-0.692C0.384,-0.692 0.396,-0.685 0.408,-0.67C0.41,-0.669 0.413,-0.668 0.415,-0.668C0.432,-0.673 0.444,-0.675 0.45,-0.675L0.451,-0.675C0.461,-0.675 0.472,-0.667 0.485,-0.651C0.487,-0.647 0.489,-0.641 0.492,-0.633C0.492,-0.631 0.498,-0.629 0.512,-0.627C0.527,-0.622 0.538,-0.612 0.546,-0.597C0.549,-0.589 0.553,-0.584 0.559,-0.584C0.574,-0.578 0.585,-0.569 0.592,-0.557C0.595,-0.551 0.596,-0.543 0.596,-0.534C0.596,-0.531 0.595,-0.528 0.594,-0.523C0.594,-0.52 0.598,-0.514 0.607,-0.504C0.621,-0.484 0.628,-0.466 0.628,-0.451C0.627,-0.449 0.627,-0.447 0.627,-0.445L0.627,-0.444C0.627,-0.438 0.631,-0.431 0.639,-0.421C0.646,-0.408 0.649,-0.398 0.649,-0.389L0.649,-0.385C0.649,-0.383 0.648,-0.377 0.645,-0.367L0.645,-0.365L0.647,-0.352C0.647,-0.35 0.646,-0.343 0.643,-0.329L0.643,-0.327C0.643,-0.325 0.646,-0.314 0.651,-0.293C0.651,-0.293 0.652,-0.29 0.652,-0.285C0.652,-0.27 0.643,-0.258 0.626,-0.248L0.625,-0.244C0.627,-0.228 0.628,-0.215 0.628,-0.203C0.628,-0.184 0.62,-0.169 0.604,-0.158C0.602,-0.158 0.6,-0.146 0.598,-0.123C0.597,-0.116 0.592,-0.108 0.586,-0.102C0.581,-0.098 0.571,-0.094 0.556,-0.09C0.543,-0.087 0.536,-0.084 0.536,-0.08C0.535,-0.08 0.533,-0.072 0.531,-0.055C0.528,-0.042 0.522,-0.033 0.513,-0.027C0.501,-0.023 0.491,-0.021 0.484,-0.021L0.481,-0.021C0.474,-0.022 0.47,-0.022 0.469,-0.022L0.467,-0.022C0.464,-0.022 0.457,-0.018 0.444,-0.008C0.436,-0.003 0.426,-0 0.415,-0C0.404,-0 0.388,-0.003 0.368,-0.01L0.354,-0.01C0.349,-0.01 0.345,-0.009 0.34,-0.009C0.316,-0.009 0.295,-0.015 0.276,-0.029C0.272,-0.032 0.26,-0.034 0.239,-0.034C0.222,-0.037 0.209,-0.041 0.198,-0.046C0.181,-0.058 0.17,-0.064 0.164,-0.064C0.144,-0.068 0.128,-0.074 0.116,-0.083C0.112,-0.085 0.106,-0.097 0.099,-0.12C0.093,-0.135 0.086,-0.143 0.077,-0.143C0.064,-0.148 0.053,-0.16 0.045,-0.179C0.037,-0.196 0.034,-0.208 0.034,-0.217C0.032,-0.222 0.03,-0.234 0.028,-0.254C0.014,-0.281 0.006,-0.299 0.005,-0.307C0.002,-0.316 0,-0.325 0,-0.335C0,-0.344 0.004,-0.354 0.011,-0.365C0.014,-0.373 0.015,-0.385 0.015,-0.403C0.018,-0.423 0.026,-0.44 0.037,-0.453L0.058,-0.47C0.058,-0.478 0.062,-0.499 0.071,-0.531C0.073,-0.552 0.077,-0.566 0.082,-0.573C0.089,-0.584 0.102,-0.593 0.121,-0.6C0.136,-0.641 0.159,-0.662 0.189,-0.662C0.191,-0.662 0.203,-0.663 0.225,-0.667L0.246,-0.665C0.261,-0.678 0.276,-0.684 0.289,-0.684L0.291,-0.684C0.296,-0.684 0.306,-0.682 0.319,-0.677L0.32,-0.677C0.347,-0.687 0.365,-0.692 0.374,-0.692ZM0.338,-0.65C0.338,-0.648 0.342,-0.642 0.351,-0.632C0.351,-0.631 0.351,-0.63 0.351,-0.629C0.35,-0.627 0.349,-0.625 0.347,-0.624L0.346,-0.624C0.34,-0.624 0.327,-0.633 0.306,-0.65C0.299,-0.654 0.294,-0.656 0.292,-0.656L0.286,-0.656C0.279,-0.656 0.269,-0.647 0.256,-0.629C0.24,-0.61 0.231,-0.595 0.227,-0.585C0.225,-0.584 0.224,-0.583 0.223,-0.583C0.218,-0.586 0.216,-0.589 0.216,-0.594L0.216,-0.599C0.216,-0.602 0.221,-0.611 0.229,-0.626C0.229,-0.627 0.229,-0.628 0.229,-0.628C0.229,-0.633 0.227,-0.635 0.223,-0.635L0.216,-0.635C0.197,-0.631 0.186,-0.629 0.183,-0.629C0.167,-0.629 0.157,-0.614 0.154,-0.584C0.151,-0.579 0.145,-0.574 0.136,-0.57C0.121,-0.565 0.112,-0.559 0.109,-0.554C0.107,-0.548 0.105,-0.537 0.103,-0.521C0.097,-0.499 0.093,-0.486 0.093,-0.482L0.093,-0.48C0.094,-0.479 0.095,-0.478 0.098,-0.478L0.098,-0.478C0.113,-0.483 0.121,-0.485 0.124,-0.485C0.125,-0.485 0.127,-0.483 0.128,-0.48C0.128,-0.478 0.125,-0.475 0.118,-0.472C0.102,-0.465 0.095,-0.458 0.095,-0.451C0.092,-0.445 0.086,-0.44 0.077,-0.438C0.066,-0.434 0.059,-0.429 0.055,-0.423C0.05,-0.412 0.047,-0.396 0.047,-0.372C0.047,-0.363 0.045,-0.352 0.041,-0.34C0.04,-0.337 0.04,-0.33 0.039,-0.318C0.039,-0.309 0.044,-0.298 0.054,-0.285C0.061,-0.275 0.064,-0.261 0.064,-0.244C0.064,-0.221 0.072,-0.2 0.088,-0.181C0.091,-0.177 0.099,-0.173 0.111,-0.169C0.118,-0.167 0.125,-0.154 0.132,-0.13C0.139,-0.108 0.152,-0.097 0.169,-0.097L0.174,-0.097C0.176,-0.097 0.181,-0.097 0.188,-0.098C0.195,-0.098 0.201,-0.093 0.206,-0.083C0.215,-0.074 0.225,-0.07 0.233,-0.07C0.233,-0.07 0.238,-0.069 0.248,-0.067C0.251,-0.068 0.252,-0.069 0.252,-0.072C0.251,-0.076 0.243,-0.089 0.227,-0.11C0.225,-0.113 0.225,-0.115 0.225,-0.117C0.225,-0.117 0.225,-0.118 0.227,-0.119L0.227,-0.119C0.232,-0.114 0.245,-0.101 0.267,-0.079C0.293,-0.057 0.307,-0.047 0.308,-0.047C0.316,-0.043 0.326,-0.041 0.339,-0.041C0.345,-0.041 0.356,-0.042 0.372,-0.046C0.377,-0.046 0.384,-0.043 0.394,-0.035C0.397,-0.033 0.402,-0.031 0.408,-0.031C0.421,-0.032 0.428,-0.036 0.428,-0.042L0.428,-0.042C0.418,-0.05 0.413,-0.055 0.413,-0.058C0.414,-0.06 0.416,-0.062 0.418,-0.062L0.42,-0.062L0.472,-0.052L0.483,-0.052C0.493,-0.052 0.499,-0.059 0.502,-0.073C0.502,-0.076 0.502,-0.089 0.502,-0.111C0.502,-0.125 0.501,-0.138 0.499,-0.152C0.499,-0.158 0.501,-0.161 0.506,-0.162C0.509,-0.162 0.512,-0.155 0.515,-0.14C0.517,-0.137 0.518,-0.13 0.52,-0.12C0.521,-0.117 0.525,-0.115 0.53,-0.115C0.543,-0.115 0.555,-0.119 0.564,-0.126C0.569,-0.134 0.571,-0.145 0.571,-0.161C0.574,-0.17 0.579,-0.177 0.586,-0.182C0.594,-0.191 0.598,-0.199 0.598,-0.207L0.598,-0.212C0.598,-0.224 0.594,-0.238 0.586,-0.254L0.586,-0.258C0.586,-0.263 0.596,-0.27 0.616,-0.278C0.619,-0.281 0.62,-0.285 0.62,-0.288L0.62,-0.294C0.62,-0.298 0.617,-0.308 0.612,-0.325L0.612,-0.329C0.613,-0.337 0.614,-0.343 0.614,-0.346C0.614,-0.35 0.613,-0.357 0.611,-0.367C0.611,-0.369 0.614,-0.375 0.619,-0.385L0.62,-0.389L0.62,-0.391C0.62,-0.399 0.611,-0.41 0.595,-0.423C0.593,-0.427 0.592,-0.43 0.592,-0.432C0.595,-0.441 0.596,-0.449 0.596,-0.454L0.596,-0.456C0.596,-0.469 0.591,-0.48 0.58,-0.488C0.575,-0.488 0.572,-0.481 0.572,-0.467C0.571,-0.463 0.569,-0.46 0.568,-0.46C0.564,-0.461 0.562,-0.467 0.562,-0.479C0.561,-0.479 0.561,-0.485 0.561,-0.496C0.561,-0.503 0.561,-0.515 0.563,-0.534C0.563,-0.544 0.559,-0.552 0.552,-0.555C0.541,-0.557 0.529,-0.559 0.517,-0.56C0.516,-0.56 0.513,-0.559 0.509,-0.559C0.494,-0.56 0.486,-0.562 0.485,-0.566L0.485,-0.567C0.485,-0.57 0.493,-0.572 0.509,-0.573C0.514,-0.576 0.516,-0.579 0.516,-0.583L0.516,-0.587C0.513,-0.596 0.508,-0.6 0.501,-0.6L0.498,-0.6C0.494,-0.6 0.486,-0.599 0.474,-0.598C0.467,-0.598 0.463,-0.605 0.461,-0.619C0.458,-0.638 0.453,-0.648 0.445,-0.648L0.442,-0.648C0.426,-0.643 0.411,-0.638 0.397,-0.631L0.395,-0.631C0.391,-0.631 0.387,-0.635 0.382,-0.644C0.38,-0.658 0.375,-0.665 0.368,-0.665L0.366,-0.665C0.356,-0.665 0.347,-0.661 0.339,-0.654C0.338,-0.653 0.338,-0.651 0.338,-0.65ZM0.37,-0.549L0.375,-0.549C0.383,-0.549 0.397,-0.543 0.417,-0.53C0.434,-0.527 0.445,-0.523 0.451,-0.517C0.461,-0.506 0.467,-0.496 0.467,-0.487L0.467,-0.484C0.467,-0.481 0.465,-0.475 0.461,-0.465C0.461,-0.463 0.46,-0.461 0.46,-0.46C0.467,-0.443 0.473,-0.434 0.479,-0.434C0.494,-0.43 0.504,-0.424 0.509,-0.415C0.512,-0.411 0.513,-0.409 0.513,-0.406C0.513,-0.405 0.51,-0.394 0.505,-0.374L0.505,-0.372C0.505,-0.371 0.508,-0.362 0.516,-0.346C0.518,-0.339 0.519,-0.334 0.519,-0.331L0.519,-0.329C0.519,-0.322 0.514,-0.313 0.504,-0.303C0.504,-0.292 0.504,-0.282 0.504,-0.276C0.504,-0.262 0.497,-0.252 0.483,-0.245C0.463,-0.239 0.451,-0.236 0.448,-0.235C0.446,-0.232 0.443,-0.225 0.439,-0.212C0.431,-0.196 0.412,-0.188 0.382,-0.188C0.378,-0.186 0.37,-0.181 0.359,-0.174C0.347,-0.17 0.337,-0.168 0.329,-0.168C0.309,-0.168 0.29,-0.178 0.274,-0.198C0.268,-0.204 0.259,-0.209 0.246,-0.212C0.238,-0.212 0.226,-0.219 0.21,-0.234C0.204,-0.241 0.199,-0.25 0.195,-0.263C0.195,-0.266 0.185,-0.277 0.165,-0.296C0.148,-0.314 0.14,-0.33 0.14,-0.342C0.139,-0.348 0.139,-0.351 0.139,-0.352C0.139,-0.356 0.142,-0.366 0.15,-0.381C0.144,-0.397 0.141,-0.411 0.141,-0.423C0.141,-0.446 0.15,-0.467 0.169,-0.485C0.182,-0.491 0.194,-0.499 0.205,-0.511C0.219,-0.524 0.234,-0.53 0.248,-0.53C0.254,-0.53 0.266,-0.528 0.284,-0.523C0.295,-0.528 0.304,-0.53 0.311,-0.53C0.313,-0.53 0.318,-0.53 0.324,-0.529C0.327,-0.53 0.336,-0.535 0.35,-0.544C0.358,-0.548 0.364,-0.549 0.37,-0.549ZM0.328,-0.485L0.326,-0.485C0.323,-0.485 0.319,-0.488 0.312,-0.496L0.309,-0.496C0.308,-0.496 0.3,-0.491 0.287,-0.482L0.283,-0.481L0.282,-0.481C0.278,-0.481 0.274,-0.485 0.269,-0.493C0.264,-0.496 0.26,-0.498 0.254,-0.498L0.25,-0.498C0.237,-0.498 0.225,-0.488 0.211,-0.469C0.206,-0.464 0.198,-0.459 0.186,-0.452C0.18,-0.446 0.177,-0.435 0.177,-0.421L0.177,-0.42C0.177,-0.409 0.181,-0.397 0.189,-0.384L0.19,-0.378C0.19,-0.375 0.186,-0.367 0.177,-0.355L0.177,-0.352L0.177,-0.35C0.177,-0.339 0.188,-0.324 0.212,-0.305C0.226,-0.295 0.232,-0.284 0.232,-0.272C0.232,-0.265 0.24,-0.256 0.255,-0.248C0.261,-0.245 0.271,-0.241 0.286,-0.237C0.287,-0.237 0.295,-0.228 0.31,-0.21C0.319,-0.203 0.327,-0.2 0.333,-0.2C0.34,-0.2 0.35,-0.207 0.364,-0.22C0.368,-0.222 0.371,-0.223 0.374,-0.223C0.382,-0.221 0.389,-0.219 0.396,-0.218C0.405,-0.218 0.411,-0.224 0.413,-0.237L0.41,-0.256C0.41,-0.263 0.415,-0.268 0.425,-0.271C0.438,-0.268 0.447,-0.267 0.451,-0.267C0.465,-0.267 0.473,-0.272 0.473,-0.283L0.473,-0.284C0.473,-0.288 0.47,-0.297 0.466,-0.312L0.466,-0.313C0.466,-0.317 0.472,-0.323 0.485,-0.331C0.486,-0.333 0.487,-0.335 0.487,-0.337L0.487,-0.337C0.487,-0.347 0.481,-0.356 0.469,-0.364C0.466,-0.368 0.465,-0.37 0.465,-0.373L0.465,-0.374C0.465,-0.378 0.471,-0.386 0.483,-0.397L0.484,-0.401C0.484,-0.406 0.48,-0.409 0.472,-0.409C0.472,-0.41 0.469,-0.41 0.464,-0.41L0.453,-0.41C0.445,-0.41 0.44,-0.418 0.437,-0.434C0.429,-0.448 0.425,-0.458 0.425,-0.462L0.425,-0.463C0.425,-0.465 0.428,-0.472 0.434,-0.485L0.434,-0.487C0.433,-0.494 0.43,-0.497 0.425,-0.497L0.424,-0.497L0.402,-0.493L0.402,-0.493C0.396,-0.493 0.391,-0.5 0.387,-0.515C0.385,-0.519 0.38,-0.521 0.375,-0.521C0.361,-0.521 0.352,-0.515 0.348,-0.501C0.342,-0.49 0.335,-0.485 0.328,-0.485Z" style="fill-rule:nonzero;"/>
    </g>
    <g transform="matrix(35.7417,0,0,35.7417,41.002,25.8813)">
        <path d="M0.125,-0.724L0.132,-0.724C0.147,-0.724 0.162,-0.715 0.177,-0.698C0.181,-0.694 0.184,-0.686 0.184,-0.673C0.187,-0.663 0.188,-0.653 0.188,-0.645L0.188,-0.641C0.188,-0.633 0.187,-0.625 0.184,-0.615C0.184,-0.611 0.189,-0.604 0.199,-0.595C0.209,-0.584 0.214,-0.571 0.214,-0.556L0.214,-0.555C0.214,-0.544 0.21,-0.529 0.202,-0.51C0.212,-0.492 0.217,-0.481 0.217,-0.476C0.218,-0.473 0.218,-0.469 0.218,-0.465L0.218,-0.459C0.218,-0.444 0.212,-0.427 0.2,-0.408C0.21,-0.385 0.215,-0.372 0.215,-0.369L0.216,-0.358C0.216,-0.348 0.212,-0.335 0.206,-0.318C0.221,-0.296 0.228,-0.276 0.228,-0.258C0.227,-0.25 0.227,-0.245 0.227,-0.245C0.227,-0.24 0.234,-0.235 0.249,-0.23L0.276,-0.217L0.298,-0.228C0.308,-0.232 0.331,-0.236 0.367,-0.239C0.374,-0.243 0.377,-0.247 0.377,-0.251C0.381,-0.263 0.386,-0.274 0.391,-0.284C0.392,-0.286 0.393,-0.288 0.393,-0.291C0.383,-0.313 0.378,-0.331 0.378,-0.344L0.378,-0.348C0.378,-0.361 0.382,-0.377 0.391,-0.397C0.392,-0.4 0.393,-0.402 0.393,-0.404C0.393,-0.405 0.389,-0.417 0.382,-0.438C0.381,-0.444 0.38,-0.451 0.38,-0.457C0.38,-0.468 0.384,-0.482 0.391,-0.499C0.391,-0.5 0.387,-0.508 0.378,-0.523C0.375,-0.532 0.374,-0.541 0.374,-0.548L0.374,-0.551C0.374,-0.555 0.378,-0.565 0.385,-0.581L0.385,-0.582C0.385,-0.584 0.381,-0.59 0.374,-0.601C0.369,-0.608 0.367,-0.617 0.367,-0.626C0.367,-0.64 0.373,-0.658 0.383,-0.679C0.384,-0.686 0.388,-0.695 0.396,-0.706C0.403,-0.715 0.412,-0.72 0.421,-0.72C0.438,-0.719 0.454,-0.713 0.47,-0.702C0.479,-0.695 0.491,-0.687 0.506,-0.68C0.536,-0.662 0.551,-0.634 0.551,-0.596L0.548,-0.572L0.548,-0.567C0.548,-0.563 0.553,-0.556 0.563,-0.547C0.571,-0.535 0.575,-0.526 0.575,-0.519L0.575,-0.516C0.575,-0.512 0.569,-0.491 0.557,-0.453L0.557,-0.451C0.557,-0.447 0.561,-0.438 0.571,-0.423C0.574,-0.415 0.575,-0.409 0.575,-0.403C0.575,-0.393 0.57,-0.377 0.559,-0.356C0.559,-0.356 0.558,-0.355 0.558,-0.354C0.558,-0.351 0.565,-0.34 0.579,-0.319C0.586,-0.306 0.59,-0.296 0.59,-0.289L0.59,-0.282C0.59,-0.276 0.584,-0.257 0.574,-0.225C0.573,-0.224 0.573,-0.223 0.573,-0.22C0.573,-0.215 0.577,-0.207 0.586,-0.195C0.593,-0.181 0.597,-0.169 0.597,-0.156L0.597,-0.151C0.597,-0.138 0.592,-0.123 0.583,-0.106L0.582,-0.098C0.583,-0.091 0.583,-0.084 0.583,-0.079L0.583,-0.073C0.583,-0.063 0.576,-0.051 0.563,-0.036C0.549,-0.023 0.532,-0.017 0.511,-0.017C0.505,-0.014 0.496,-0.01 0.485,-0.003C0.479,-0.002 0.472,-0.001 0.464,-0C0.448,-0 0.437,-0.013 0.432,-0.038C0.429,-0.047 0.427,-0.056 0.427,-0.064C0.427,-0.069 0.427,-0.073 0.427,-0.077L0.427,-0.085C0.427,-0.087 0.425,-0.088 0.423,-0.088L0.422,-0.088C0.419,-0.086 0.413,-0.079 0.406,-0.066C0.392,-0.049 0.377,-0.04 0.361,-0.04L0.357,-0.04C0.351,-0.04 0.34,-0.043 0.323,-0.048C0.304,-0.036 0.291,-0.03 0.284,-0.03L0.274,-0.03C0.256,-0.03 0.24,-0.036 0.226,-0.049C0.224,-0.051 0.221,-0.051 0.219,-0.051C0.203,-0.05 0.193,-0.049 0.186,-0.049L0.185,-0.049C0.161,-0.049 0.138,-0.059 0.117,-0.079C0.115,-0.084 0.103,-0.091 0.082,-0.098C0.069,-0.104 0.06,-0.112 0.055,-0.122C0.05,-0.132 0.048,-0.143 0.048,-0.153C0.045,-0.16 0.041,-0.165 0.035,-0.168C0.019,-0.178 0.011,-0.195 0.011,-0.22L0.011,-0.223C0.011,-0.237 0.013,-0.254 0.019,-0.273L0.019,-0.277C0.019,-0.28 0.015,-0.286 0.007,-0.296C0.002,-0.305 0,-0.312 0,-0.32C0,-0.331 0.005,-0.351 0.016,-0.381C0.017,-0.381 0.017,-0.383 0.017,-0.386L0.017,-0.386C0.017,-0.389 0.014,-0.393 0.007,-0.399C0.003,-0.405 0,-0.411 0,-0.418L0,-0.422C0,-0.436 0.004,-0.453 0.012,-0.474C0.013,-0.474 0.013,-0.475 0.013,-0.477C0.006,-0.492 0.003,-0.507 0.003,-0.521C0.003,-0.536 0.009,-0.556 0.022,-0.579C0.01,-0.6 0.004,-0.619 0.004,-0.635C0.004,-0.64 0.007,-0.657 0.013,-0.685C0.016,-0.693 0.021,-0.699 0.028,-0.705C0.037,-0.713 0.046,-0.716 0.054,-0.716L0.065,-0.716C0.076,-0.716 0.086,-0.715 0.095,-0.713C0.109,-0.72 0.12,-0.724 0.125,-0.724ZM0.397,-0.623C0.397,-0.612 0.406,-0.6 0.425,-0.587C0.428,-0.584 0.429,-0.581 0.429,-0.578L0.429,-0.577C0.429,-0.571 0.423,-0.565 0.41,-0.56C0.406,-0.557 0.404,-0.551 0.404,-0.544C0.404,-0.533 0.411,-0.523 0.423,-0.515C0.429,-0.508 0.432,-0.504 0.432,-0.501L0.432,-0.5C0.432,-0.498 0.426,-0.491 0.416,-0.48C0.412,-0.473 0.411,-0.466 0.411,-0.459L0.411,-0.453C0.411,-0.446 0.412,-0.438 0.416,-0.429C0.417,-0.427 0.419,-0.425 0.422,-0.425C0.435,-0.431 0.442,-0.434 0.444,-0.434C0.447,-0.433 0.449,-0.43 0.449,-0.426L0.449,-0.425C0.449,-0.424 0.444,-0.417 0.436,-0.404C0.436,-0.399 0.433,-0.395 0.428,-0.391C0.416,-0.382 0.41,-0.373 0.41,-0.364C0.409,-0.355 0.408,-0.348 0.408,-0.344C0.408,-0.327 0.415,-0.31 0.428,-0.294C0.431,-0.284 0.438,-0.272 0.446,-0.258C0.447,-0.256 0.447,-0.254 0.447,-0.252C0.446,-0.249 0.445,-0.248 0.444,-0.248L0.443,-0.248C0.441,-0.248 0.434,-0.253 0.421,-0.263C0.42,-0.264 0.419,-0.264 0.418,-0.264L0.414,-0.264C0.41,-0.264 0.405,-0.248 0.399,-0.217C0.395,-0.211 0.389,-0.208 0.38,-0.208L0.361,-0.208C0.36,-0.208 0.359,-0.208 0.359,-0.209C0.326,-0.209 0.307,-0.205 0.302,-0.198C0.293,-0.191 0.288,-0.186 0.288,-0.183L0.288,-0.183C0.288,-0.181 0.292,-0.175 0.299,-0.166L0.299,-0.163C0.299,-0.162 0.299,-0.162 0.298,-0.162L0.296,-0.162C0.293,-0.162 0.281,-0.169 0.26,-0.185C0.239,-0.203 0.219,-0.211 0.201,-0.211C0.174,-0.212 0.161,-0.216 0.161,-0.222C0.161,-0.225 0.167,-0.227 0.181,-0.23C0.191,-0.236 0.196,-0.246 0.196,-0.262L0.196,-0.263C0.196,-0.279 0.188,-0.293 0.171,-0.304C0.165,-0.309 0.162,-0.314 0.162,-0.319C0.162,-0.323 0.168,-0.331 0.18,-0.342C0.183,-0.347 0.185,-0.352 0.185,-0.356L0.185,-0.359C0.185,-0.37 0.177,-0.384 0.161,-0.4C0.159,-0.405 0.158,-0.408 0.158,-0.411C0.158,-0.416 0.164,-0.424 0.177,-0.436C0.183,-0.445 0.186,-0.452 0.186,-0.458L0.186,-0.463C0.186,-0.474 0.183,-0.48 0.177,-0.48C0.174,-0.48 0.168,-0.473 0.16,-0.458C0.16,-0.458 0.157,-0.456 0.152,-0.451L0.149,-0.451C0.148,-0.451 0.147,-0.453 0.146,-0.456C0.146,-0.459 0.151,-0.473 0.16,-0.498C0.166,-0.515 0.172,-0.53 0.179,-0.542C0.181,-0.548 0.182,-0.553 0.182,-0.558C0.182,-0.569 0.174,-0.578 0.158,-0.584C0.156,-0.584 0.146,-0.593 0.128,-0.609C0.125,-0.61 0.119,-0.615 0.11,-0.625L0.11,-0.625C0.11,-0.628 0.111,-0.629 0.112,-0.629C0.131,-0.623 0.142,-0.62 0.145,-0.62C0.151,-0.62 0.154,-0.628 0.156,-0.643L0.156,-0.643C0.156,-0.652 0.15,-0.664 0.137,-0.677C0.133,-0.685 0.13,-0.688 0.126,-0.688L0.125,-0.688C0.123,-0.688 0.119,-0.686 0.114,-0.682C0.111,-0.68 0.105,-0.679 0.099,-0.679C0.097,-0.679 0.089,-0.681 0.075,-0.685C0.073,-0.685 0.072,-0.686 0.07,-0.686C0.057,-0.686 0.048,-0.679 0.043,-0.666C0.038,-0.646 0.036,-0.634 0.036,-0.629L0.036,-0.624C0.036,-0.613 0.042,-0.601 0.053,-0.587C0.056,-0.583 0.058,-0.579 0.058,-0.576L0.058,-0.575C0.058,-0.571 0.053,-0.563 0.042,-0.552C0.037,-0.547 0.035,-0.536 0.035,-0.521L0.035,-0.515C0.035,-0.503 0.039,-0.492 0.049,-0.482L0.049,-0.478L0.049,-0.477C0.049,-0.476 0.046,-0.468 0.039,-0.453C0.036,-0.444 0.035,-0.435 0.035,-0.428L0.035,-0.42C0.035,-0.415 0.041,-0.409 0.053,-0.401C0.058,-0.396 0.06,-0.393 0.06,-0.39L0.06,-0.389C0.06,-0.387 0.055,-0.38 0.043,-0.369C0.034,-0.355 0.03,-0.339 0.03,-0.322L0.03,-0.32C0.03,-0.31 0.035,-0.303 0.044,-0.299C0.052,-0.293 0.055,-0.288 0.055,-0.283L0.055,-0.282C0.055,-0.28 0.052,-0.273 0.045,-0.261C0.042,-0.254 0.041,-0.241 0.041,-0.222C0.043,-0.202 0.047,-0.191 0.05,-0.191C0.05,-0.189 0.059,-0.184 0.076,-0.178C0.08,-0.174 0.082,-0.169 0.083,-0.164C0.081,-0.158 0.081,-0.155 0.081,-0.154L0.081,-0.146C0.081,-0.134 0.088,-0.125 0.103,-0.12C0.119,-0.117 0.128,-0.115 0.13,-0.113C0.132,-0.113 0.135,-0.108 0.14,-0.098C0.146,-0.091 0.157,-0.084 0.175,-0.078C0.181,-0.077 0.186,-0.076 0.189,-0.076L0.19,-0.076C0.196,-0.076 0.204,-0.079 0.214,-0.084C0.217,-0.086 0.221,-0.086 0.223,-0.086C0.23,-0.086 0.24,-0.08 0.252,-0.068C0.259,-0.062 0.267,-0.06 0.274,-0.06C0.283,-0.06 0.295,-0.066 0.308,-0.078C0.311,-0.08 0.315,-0.082 0.321,-0.083C0.323,-0.083 0.331,-0.079 0.344,-0.072C0.35,-0.071 0.355,-0.07 0.358,-0.07C0.374,-0.07 0.387,-0.082 0.398,-0.107C0.404,-0.113 0.414,-0.116 0.428,-0.116C0.43,-0.117 0.436,-0.118 0.447,-0.119C0.455,-0.117 0.459,-0.113 0.459,-0.106C0.454,-0.085 0.451,-0.073 0.451,-0.07L0.451,-0.066C0.456,-0.041 0.46,-0.028 0.464,-0.028C0.465,-0.028 0.466,-0.027 0.467,-0.027L0.47,-0.027C0.476,-0.027 0.484,-0.032 0.494,-0.042C0.499,-0.049 0.503,-0.053 0.507,-0.053L0.522,-0.044C0.523,-0.044 0.524,-0.044 0.524,-0.044C0.532,-0.044 0.541,-0.05 0.554,-0.061C0.561,-0.068 0.564,-0.074 0.564,-0.079L0.564,-0.084C0.564,-0.086 0.562,-0.092 0.558,-0.102C0.557,-0.104 0.556,-0.106 0.556,-0.109C0.556,-0.114 0.56,-0.121 0.568,-0.13C0.572,-0.138 0.575,-0.146 0.575,-0.155C0.575,-0.171 0.566,-0.19 0.549,-0.211C0.547,-0.215 0.545,-0.219 0.545,-0.222L0.545,-0.225C0.545,-0.228 0.551,-0.246 0.563,-0.28C0.563,-0.281 0.564,-0.283 0.564,-0.287C0.564,-0.3 0.553,-0.318 0.531,-0.342C0.524,-0.353 0.512,-0.369 0.495,-0.391L0.494,-0.393L0.494,-0.393C0.494,-0.396 0.494,-0.397 0.496,-0.397C0.5,-0.397 0.509,-0.389 0.524,-0.374L0.529,-0.374C0.536,-0.374 0.542,-0.384 0.546,-0.406L0.546,-0.408C0.546,-0.415 0.541,-0.426 0.53,-0.441C0.527,-0.447 0.525,-0.451 0.525,-0.456C0.525,-0.458 0.53,-0.469 0.539,-0.489C0.544,-0.502 0.547,-0.511 0.547,-0.517C0.547,-0.526 0.54,-0.535 0.526,-0.543C0.517,-0.551 0.513,-0.558 0.513,-0.564C0.513,-0.565 0.515,-0.572 0.52,-0.584C0.521,-0.59 0.522,-0.596 0.522,-0.604L0.522,-0.616C0.522,-0.636 0.506,-0.653 0.473,-0.667C0.465,-0.667 0.457,-0.672 0.451,-0.682C0.444,-0.687 0.438,-0.689 0.434,-0.69C0.427,-0.69 0.422,-0.686 0.419,-0.679C0.418,-0.672 0.412,-0.663 0.402,-0.652C0.4,-0.649 0.399,-0.64 0.397,-0.623Z" style="fill-rule:nonzero;"/>
    </g>
    <g transform="matrix(35.7417,0,0,35.7417,62.4289,29.6376)">
        <path d="M0.36,-0.703L0.364,-0.703C0.385,-0.703 0.403,-0.69 0.42,-0.665C0.424,-0.66 0.433,-0.654 0.445,-0.649C0.46,-0.639 0.468,-0.625 0.468,-0.609C0.468,-0.595 0.461,-0.582 0.447,-0.57L0.43,-0.547C0.421,-0.538 0.408,-0.534 0.392,-0.534C0.385,-0.534 0.375,-0.535 0.364,-0.538C0.359,-0.538 0.354,-0.535 0.351,-0.527C0.345,-0.521 0.337,-0.519 0.328,-0.519C0.321,-0.519 0.309,-0.521 0.291,-0.526C0.279,-0.518 0.267,-0.514 0.254,-0.514L0.236,-0.514C0.229,-0.514 0.223,-0.51 0.218,-0.5C0.218,-0.5 0.216,-0.498 0.212,-0.494C0.216,-0.48 0.219,-0.463 0.221,-0.44C0.226,-0.435 0.234,-0.43 0.247,-0.425C0.263,-0.428 0.274,-0.429 0.282,-0.429L0.286,-0.429C0.294,-0.429 0.306,-0.426 0.323,-0.42L0.324,-0.42C0.341,-0.425 0.354,-0.428 0.362,-0.428L0.364,-0.428C0.382,-0.428 0.396,-0.422 0.408,-0.41C0.411,-0.404 0.413,-0.397 0.413,-0.389L0.413,-0.377C0.413,-0.373 0.415,-0.364 0.421,-0.352C0.422,-0.347 0.423,-0.341 0.423,-0.333C0.423,-0.318 0.42,-0.307 0.412,-0.302C0.405,-0.299 0.395,-0.292 0.383,-0.281C0.376,-0.277 0.367,-0.274 0.357,-0.271L0.333,-0.256C0.326,-0.253 0.318,-0.252 0.311,-0.252C0.302,-0.252 0.291,-0.254 0.276,-0.258L0.274,-0.258L0.254,-0.254L0.248,-0.254C0.245,-0.254 0.239,-0.255 0.229,-0.256C0.224,-0.256 0.221,-0.255 0.221,-0.251L0.221,-0.25C0.221,-0.248 0.225,-0.238 0.235,-0.221C0.236,-0.217 0.237,-0.213 0.237,-0.209L0.237,-0.205C0.237,-0.198 0.232,-0.186 0.222,-0.167C0.234,-0.15 0.24,-0.135 0.24,-0.123L0.24,-0.122C0.24,-0.117 0.237,-0.106 0.23,-0.092C0.237,-0.079 0.24,-0.069 0.24,-0.06L0.24,-0.059C0.24,-0.041 0.23,-0.028 0.21,-0.021C0.195,-0.017 0.179,-0.011 0.161,-0.002C0.157,-0.001 0.152,-0 0.147,-0C0.129,-0 0.109,-0.01 0.088,-0.029C0.079,-0.043 0.071,-0.051 0.064,-0.051C0.046,-0.057 0.032,-0.069 0.022,-0.087C0.017,-0.095 0.014,-0.112 0.014,-0.139L0.002,-0.165C0.001,-0.17 0,-0.175 0,-0.18C0,-0.195 0.004,-0.213 0.013,-0.234C0.014,-0.235 0.015,-0.237 0.015,-0.242L0.015,-0.243C0.015,-0.245 0.012,-0.252 0.005,-0.265C0.004,-0.271 0.003,-0.275 0.003,-0.279C0.003,-0.293 0.009,-0.308 0.021,-0.325C0.013,-0.342 0.009,-0.355 0.009,-0.364L0.009,-0.367C0.009,-0.382 0.017,-0.399 0.032,-0.417C0.032,-0.419 0.032,-0.42 0.033,-0.42C0.028,-0.434 0.026,-0.443 0.026,-0.446L0.026,-0.451C0.026,-0.457 0.028,-0.468 0.032,-0.483L0.032,-0.488C0.029,-0.498 0.027,-0.505 0.027,-0.507L0.027,-0.513C0.027,-0.523 0.034,-0.536 0.047,-0.553C0.049,-0.556 0.05,-0.56 0.05,-0.563L0.048,-0.586C0.048,-0.603 0.053,-0.616 0.062,-0.626C0.068,-0.639 0.074,-0.646 0.08,-0.649C0.082,-0.651 0.092,-0.656 0.11,-0.662C0.133,-0.676 0.154,-0.684 0.174,-0.684L0.176,-0.684C0.185,-0.684 0.197,-0.681 0.212,-0.675L0.216,-0.675C0.217,-0.675 0.228,-0.678 0.248,-0.684C0.257,-0.686 0.266,-0.688 0.274,-0.688C0.285,-0.688 0.297,-0.685 0.31,-0.681C0.331,-0.695 0.345,-0.702 0.353,-0.702C0.355,-0.702 0.357,-0.703 0.36,-0.703ZM0.312,-0.641C0.31,-0.641 0.304,-0.644 0.294,-0.651C0.287,-0.653 0.279,-0.654 0.27,-0.654C0.251,-0.654 0.235,-0.647 0.222,-0.634C0.218,-0.631 0.215,-0.63 0.212,-0.63L0.211,-0.63C0.204,-0.63 0.197,-0.636 0.192,-0.649C0.189,-0.651 0.183,-0.652 0.175,-0.652C0.157,-0.652 0.142,-0.646 0.13,-0.632C0.128,-0.63 0.12,-0.629 0.107,-0.628C0.105,-0.628 0.097,-0.619 0.083,-0.603C0.081,-0.599 0.08,-0.59 0.08,-0.575C0.08,-0.572 0.08,-0.565 0.082,-0.555C0.082,-0.548 0.077,-0.539 0.066,-0.529C0.06,-0.523 0.058,-0.517 0.058,-0.511C0.058,-0.509 0.06,-0.505 0.064,-0.497C0.064,-0.496 0.064,-0.495 0.064,-0.494C0.058,-0.471 0.055,-0.457 0.055,-0.452C0.055,-0.443 0.059,-0.434 0.067,-0.423C0.068,-0.421 0.068,-0.419 0.068,-0.418C0.068,-0.415 0.061,-0.406 0.047,-0.391C0.042,-0.382 0.039,-0.375 0.039,-0.37L0.039,-0.367C0.039,-0.356 0.045,-0.345 0.057,-0.335C0.059,-0.331 0.061,-0.327 0.061,-0.324C0.061,-0.32 0.055,-0.313 0.043,-0.306C0.037,-0.299 0.034,-0.293 0.034,-0.287L0.034,-0.284C0.034,-0.279 0.038,-0.272 0.047,-0.265C0.05,-0.264 0.053,-0.253 0.058,-0.233C0.065,-0.221 0.068,-0.212 0.068,-0.205L0.066,-0.204L0.063,-0.204C0.062,-0.204 0.057,-0.209 0.049,-0.218C0.047,-0.219 0.046,-0.22 0.044,-0.22L0.042,-0.22C0.035,-0.211 0.032,-0.201 0.032,-0.188L0.032,-0.184C0.032,-0.174 0.036,-0.167 0.043,-0.162C0.048,-0.157 0.051,-0.154 0.051,-0.151L0.051,-0.149C0.051,-0.146 0.048,-0.139 0.043,-0.126C0.043,-0.125 0.042,-0.123 0.042,-0.12C0.042,-0.107 0.05,-0.096 0.066,-0.085L0.07,-0.085C0.072,-0.086 0.073,-0.087 0.073,-0.088C0.073,-0.098 0.073,-0.104 0.073,-0.105C0.074,-0.108 0.075,-0.109 0.077,-0.109C0.08,-0.109 0.085,-0.1 0.092,-0.083C0.104,-0.057 0.118,-0.041 0.134,-0.034C0.142,-0.031 0.149,-0.029 0.153,-0.029C0.155,-0.029 0.161,-0.033 0.171,-0.042C0.177,-0.044 0.187,-0.046 0.201,-0.049C0.204,-0.051 0.205,-0.053 0.205,-0.056L0.205,-0.06C0.205,-0.064 0.2,-0.072 0.19,-0.083C0.189,-0.086 0.188,-0.088 0.188,-0.091C0.188,-0.096 0.194,-0.104 0.205,-0.113C0.206,-0.117 0.206,-0.119 0.206,-0.121L0.206,-0.122C0.206,-0.128 0.201,-0.136 0.192,-0.145C0.182,-0.155 0.174,-0.16 0.168,-0.16L0.165,-0.16C0.162,-0.16 0.159,-0.159 0.155,-0.158C0.151,-0.158 0.149,-0.161 0.148,-0.167L0.148,-0.168C0.171,-0.18 0.188,-0.187 0.198,-0.189C0.202,-0.192 0.204,-0.197 0.204,-0.204C0.204,-0.212 0.199,-0.222 0.191,-0.232C0.182,-0.247 0.174,-0.262 0.165,-0.275C0.166,-0.277 0.166,-0.278 0.167,-0.278C0.17,-0.278 0.177,-0.273 0.188,-0.264L0.19,-0.264C0.196,-0.264 0.199,-0.271 0.199,-0.286C0.201,-0.293 0.205,-0.297 0.211,-0.297L0.213,-0.297C0.216,-0.297 0.226,-0.291 0.241,-0.28C0.244,-0.28 0.246,-0.279 0.247,-0.279L0.252,-0.279C0.258,-0.28 0.261,-0.283 0.261,-0.288L0.261,-0.289C0.261,-0.292 0.257,-0.3 0.248,-0.312C0.248,-0.313 0.248,-0.314 0.248,-0.314C0.248,-0.316 0.249,-0.317 0.25,-0.317L0.251,-0.317C0.255,-0.317 0.263,-0.31 0.275,-0.296C0.287,-0.289 0.299,-0.283 0.313,-0.279L0.313,-0.279C0.322,-0.279 0.328,-0.284 0.332,-0.294C0.332,-0.301 0.335,-0.308 0.342,-0.314C0.343,-0.315 0.345,-0.316 0.347,-0.316C0.352,-0.316 0.355,-0.312 0.355,-0.305C0.355,-0.304 0.356,-0.302 0.358,-0.301L0.359,-0.301C0.366,-0.301 0.374,-0.308 0.383,-0.322C0.393,-0.329 0.398,-0.333 0.398,-0.334L0.398,-0.339C0.398,-0.348 0.389,-0.357 0.371,-0.367L0.37,-0.371L0.37,-0.374C0.37,-0.378 0.374,-0.383 0.382,-0.389L0.383,-0.392C0.383,-0.397 0.377,-0.4 0.364,-0.401C0.35,-0.4 0.335,-0.395 0.321,-0.387L0.32,-0.387C0.318,-0.387 0.311,-0.39 0.299,-0.396C0.294,-0.398 0.289,-0.399 0.283,-0.399C0.273,-0.399 0.262,-0.395 0.25,-0.387L0.245,-0.387C0.24,-0.387 0.233,-0.392 0.223,-0.402C0.221,-0.403 0.219,-0.404 0.217,-0.404L0.214,-0.404C0.188,-0.401 0.175,-0.398 0.175,-0.395C0.159,-0.379 0.15,-0.371 0.147,-0.371C0.146,-0.373 0.145,-0.374 0.145,-0.375C0.146,-0.381 0.154,-0.391 0.168,-0.406C0.172,-0.416 0.178,-0.425 0.186,-0.432C0.191,-0.437 0.193,-0.444 0.193,-0.453C0.193,-0.467 0.186,-0.488 0.173,-0.515C0.161,-0.533 0.155,-0.543 0.154,-0.545C0.154,-0.547 0.156,-0.548 0.158,-0.549C0.16,-0.549 0.17,-0.541 0.189,-0.525C0.192,-0.524 0.194,-0.523 0.195,-0.523L0.197,-0.523C0.199,-0.523 0.202,-0.528 0.206,-0.54C0.209,-0.542 0.212,-0.544 0.214,-0.544L0.216,-0.544C0.229,-0.541 0.24,-0.54 0.248,-0.54L0.252,-0.54C0.26,-0.54 0.264,-0.542 0.264,-0.547C0.263,-0.555 0.263,-0.559 0.263,-0.562C0.263,-0.569 0.267,-0.573 0.273,-0.573C0.275,-0.573 0.283,-0.568 0.295,-0.556C0.307,-0.55 0.317,-0.547 0.325,-0.547C0.329,-0.547 0.333,-0.553 0.338,-0.565C0.342,-0.569 0.348,-0.571 0.355,-0.571C0.357,-0.571 0.365,-0.568 0.379,-0.561C0.382,-0.56 0.386,-0.559 0.392,-0.559C0.404,-0.559 0.411,-0.564 0.411,-0.573C0.409,-0.577 0.409,-0.58 0.409,-0.582C0.409,-0.586 0.415,-0.59 0.428,-0.594C0.435,-0.599 0.439,-0.605 0.439,-0.611C0.439,-0.62 0.431,-0.627 0.415,-0.63C0.405,-0.636 0.398,-0.645 0.393,-0.658C0.383,-0.668 0.373,-0.673 0.361,-0.673C0.347,-0.673 0.335,-0.665 0.325,-0.648C0.32,-0.643 0.316,-0.641 0.312,-0.641Z" style="fill-rule:nonzero;"/>
    </g>
    <g transform="matrix(35.7417,0,0,35.7417,78.3664,25.7607)">
        <path d="M0.36,-0.703L0.364,-0.703C0.385,-0.703 0.403,-0.69 0.42,-0.665C0.424,-0.66 0.433,-0.654 0.445,-0.649C0.46,-0.639 0.468,-0.625 0.468,-0.609C0.468,-0.595 0.461,-0.582 0.447,-0.57L0.43,-0.547C0.421,-0.538 0.408,-0.534 0.392,-0.534C0.385,-0.534 0.375,-0.535 0.364,-0.538C0.359,-0.538 0.354,-0.535 0.351,-0.527C0.345,-0.521 0.337,-0.519 0.328,-0.519C0.321,-0.519 0.309,-0.521 0.291,-0.526C0.279,-0.518 0.267,-0.514 0.254,-0.514L0.236,-0.514C0.229,-0.514 0.223,-0.51 0.218,-0.5C0.218,-0.5 0.216,-0.498 0.212,-0.494C0.216,-0.48 0.219,-0.463 0.221,-0.44C0.226,-0.435 0.234,-0.43 0.247,-0.425C0.263,-0.428 0.274,-0.429 0.282,-0.429L0.286,-0.429C0.294,-0.429 0.306,-0.426 0.323,-0.42L0.324,-0.42C0.341,-0.425 0.354,-0.428 0.362,-0.428L0.364,-0.428C0.382,-0.428 0.396,-0.422 0.408,-0.41C0.411,-0.404 0.413,-0.397 0.413,-0.389L0.413,-0.377C0.413,-0.373 0.415,-0.364 0.421,-0.352C0.422,-0.347 0.423,-0.341 0.423,-0.333C0.423,-0.318 0.42,-0.307 0.412,-0.302C0.405,-0.299 0.395,-0.292 0.383,-0.281C0.376,-0.277 0.367,-0.274 0.357,-0.271L0.333,-0.256C0.326,-0.253 0.318,-0.252 0.311,-0.252C0.302,-0.252 0.291,-0.254 0.276,-0.258L0.274,-0.258L0.254,-0.254L0.248,-0.254C0.245,-0.254 0.239,-0.255 0.229,-0.256C0.224,-0.256 0.221,-0.255 0.221,-0.251L0.221,-0.25C0.221,-0.248 0.225,-0.238 0.235,-0.221C0.236,-0.217 0.237,-0.213 0.237,-0.209L0.237,-0.205C0.237,-0.198 0.232,-0.186 0.222,-0.167C0.234,-0.15 0.24,-0.135 0.24,-0.123L0.24,-0.122C0.24,-0.117 0.237,-0.106 0.23,-0.092C0.237,-0.079 0.24,-0.069 0.24,-0.06L0.24,-0.059C0.24,-0.041 0.23,-0.028 0.21,-0.021C0.195,-0.017 0.179,-0.011 0.161,-0.002C0.157,-0.001 0.152,-0 0.147,-0C0.129,-0 0.109,-0.01 0.088,-0.029C0.079,-0.043 0.071,-0.051 0.064,-0.051C0.046,-0.057 0.032,-0.069 0.022,-0.087C0.017,-0.095 0.014,-0.112 0.014,-0.139L0.002,-0.165C0.001,-0.17 0,-0.175 0,-0.18C0,-0.195 0.004,-0.213 0.013,-0.234C0.014,-0.235 0.015,-0.237 0.015,-0.242L0.015,-0.243C0.015,-0.245 0.012,-0.252 0.005,-0.265C0.004,-0.271 0.003,-0.275 0.003,-0.279C0.003,-0.293 0.009,-0.308 0.021,-0.325C0.013,-0.342 0.009,-0.355 0.009,-0.364L0.009,-0.367C0.009,-0.382 0.017,-0.399 0.032,-0.417C0.032,-0.419 0.032,-0.42 0.033,-0.42C0.028,-0.434 0.026,-0.443 0.026,-0.446L0.026,-0.451C0.026,-0.457 0.028,-0.468 0.032,-0.483L0.032,-0.488C0.029,-0.498 0.027,-0.505 0.027,-0.507L0.027,-0.513C0.027,-0.523 0.034,-0.536 0.047,-0.553C0.049,-0.556 0.05,-0.56 0.05,-0.563L0.048,-0.586C0.048,-0.603 0.053,-0.616 0.062,-0.626C0.068,-0.639 0.074,-0.646 0.08,-0.649C0.082,-0.651 0.092,-0.656 0.11,-0.662C0.133,-0.676 0.154,-0.684 0.174,-0.684L0.176,-0.684C0.185,-0.684 0.197,-0.681 0.212,-0.675L0.216,-0.675C0.217,-0.675 0.228,-0.678 0.248,-0.684C0.257,-0.686 0.266,-0.688 0.274,-0.688C0.285,-0.688 0.297,-0.685 0.31,-0.681C0.331,-0.695 0.345,-0.702 0.353,-0.702C0.355,-0.702 0.357,-0.703 0.36,-0.703ZM0.312,-0.641C0.31,-0.641 0.304,-0.644 0.294,-0.651C0.287,-0.653 0.279,-0.654 0.27,-0.654C0.251,-0.654 0.235,-0.647 0.222,-0.634C0.218,-0.631 0.215,-0.63 0.212,-0.63L0.211,-0.63C0.204,-0.63 0.197,-0.636 0.192,-0.649C0.189,-0.651 0.183,-0.652 0.175,-0.652C0.157,-0.652 0.142,-0.646 0.13,-0.632C0.128,-0.63 0.12,-0.629 0.107,-0.628C0.105,-0.628 0.097,-0.619 0.083,-0.603C0.081,-0.599 0.08,-0.59 0.08,-0.575C0.08,-0.572 0.08,-0.565 0.082,-0.555C0.082,-0.548 0.077,-0.539 0.066,-0.529C0.06,-0.523 0.058,-0.517 0.058,-0.511C0.058,-0.509 0.06,-0.505 0.064,-0.497C0.064,-0.496 0.064,-0.495 0.064,-0.494C0.058,-0.471 0.055,-0.457 0.055,-0.452C0.055,-0.443 0.059,-0.434 0.067,-0.423C0.068,-0.421 0.068,-0.419 0.068,-0.418C0.068,-0.415 0.061,-0.406 0.047,-0.391C0.042,-0.382 0.039,-0.375 0.039,-0.37L0.039,-0.367C0.039,-0.356 0.045,-0.345 0.057,-0.335C0.059,-0.331 0.061,-0.327 0.061,-0.324C0.061,-0.32 0.055,-0.313 0.043,-0.306C0.037,-0.299 0.034,-0.293 0.034,-0.287L0.034,-0.284C0.034,-0.279 0.038,-0.272 0.047,-0.265C0.05,-0.264 0.053,-0.253 0.058,-0.233C0.065,-0.221 0.068,-0.212 0.068,-0.205L0.066,-0.204L0.063,-0.204C0.062,-0.204 0.057,-0.209 0.049,-0.218C0.047,-0.219 0.046,-0.22 0.044,-0.22L0.042,-0.22C0.035,-0.211 0.032,-0.201 0.032,-0.188L0.032,-0.184C0.032,-0.174 0.036,-0.167 0.043,-0.162C0.048,-0.157 0.051,-0.154 0.051,-0.151L0.051,-0.149C0.051,-0.146 0.048,-0.139 0.043,-0.126C0.043,-0.125 0.042,-0.123 0.042,-0.12C0.042,-0.107 0.05,-0.096 0.066,-0.085L0.07,-0.085C0.072,-0.086 0.073,-0.087 0.073,-0.088C0.073,-0.098 0.073,-0.104 0.073,-0.105C0.074,-0.108 0.075,-0.109 0.077,-0.109C0.08,-0.109 0.085,-0.1 0.092,-0.083C0.104,-0.057 0.118,-0.041 0.134,-0.034C0.142,-0.031 0.149,-0.029 0.153,-0.029C0.155,-0.029 0.161,-0.033 0.171,-0.042C0.177,-0.044 0.187,-0.046 0.201,-0.049C0.204,-0.051 0.205,-0.053 0.205,-0.056L0.205,-0.06C0.205,-0.064 0.2,-0.072 0.19,-0.083C0.189,-0.086 0.188,-0.088 0.188,-0.091C0.188,-0.096 0.194,-0.104 0.205,-0.113C0.206,-0.117 0.206,-0.119 0.206,-0.121L0.206,-0.122C0.206,-0.128 0.201,-0.136 0.192,-0.145C0.182,-0.155 0.174,-0.16 0.168,-0.16L0.165,-0.16C0.162,-0.16 0.159,-0.159 0.155,-0.158C0.151,-0.158 0.149,-0.161 0.148,-0.167L0.148,-0.168C0.171,-0.18 0.188,-0.187 0.198,-0.189C0.202,-0.192 0.204,-0.197 0.204,-0.204C0.204,-0.212 0.199,-0.222 0.191,-0.232C0.182,-0.247 0.174,-0.262 0.165,-0.275C0.166,-0.277 0.166,-0.278 0.167,-0.278C0.17,-0.278 0.177,-0.273 0.188,-0.264L0.19,-0.264C0.196,-0.264 0.199,-0.271 0.199,-0.286C0.201,-0.293 0.205,-0.297 0.211,-0.297L0.213,-0.297C0.216,-0.297 0.226,-0.291 0.241,-0.28C0.244,-0.28 0.246,-0.279 0.247,-0.279L0.252,-0.279C0.258,-0.28 0.261,-0.283 0.261,-0.288L0.261,-0.289C0.261,-0.292 0.257,-0.3 0.248,-0.312C0.248,-0.313 0.248,-0.314 0.248,-0.314C0.248,-0.316 0.249,-0.317 0.25,-0.317L0.251,-0.317C0.255,-0.317 0.263,-0.31 0.275,-0.296C0.287,-0.289 0.299,-0.283 0.313,-0.279L0.313,-0.279C0.322,-0.279 0.328,-0.284 0.332,-0.294C0.332,-0.301 0.335,-0.308 0.342,-0.314C0.343,-0.315 0.345,-0.316 0.347,-0.316C0.352,-0.316 0.355,-0.312 0.355,-0.305C0.355,-0.304 0.356,-0.302 0.358,-0.301L0.359,-0.301C0.366,-0.301 0.374,-0.308 0.383,-0.322C0.393,-0.329 0.398,-0.333 0.398,-0.334L0.398,-0.339C0.398,-0.348 0.389,-0.357 0.371,-0.367L0.37,-0.371L0.37,-0.374C0.37,-0.378 0.374,-0.383 0.382,-0.389L0.383,-0.392C0.383,-0.397 0.377,-0.4 0.364,-0.401C0.35,-0.4 0.335,-0.395 0.321,-0.387L0.32,-0.387C0.318,-0.387 0.311,-0.39 0.299,-0.396C0.294,-0.398 0.289,-0.399 0.283,-0.399C0.273,-0.399 0.262,-0.395 0.25,-0.387L0.245,-0.387C0.24,-0.387 0.233,-0.392 0.223,-0.402C0.221,-0.403 0.219,-0.404 0.217,-0.404L0.214,-0.404C0.188,-0.401 0.175,-0.398 0.175,-0.395C0.159,-0.379 0.15,-0.371 0.147,-0.371C0.146,-0.373 0.145,-0.374 0.145,-0.375C0.146,-0.381 0.154,-0.391 0.168,-0.406C0.172,-0.416 0.178,-0.425 0.186,-0.432C0.191,-0.437 0.193,-0.444 0.193,-0.453C0.193,-0.467 0.186,-0.488 0.173,-0.515C0.161,-0.533 0.155,-0.543 0.154,-0.545C0.154,-0.547 0.156,-0.548 0.158,-0.549C0.16,-0.549 0.17,-0.541 0.189,-0.525C0.192,-0.524 0.194,-0.523 0.195,-0.523L0.197,-0.523C0.199,-0.523 0.202,-0.528 0.206,-0.54C0.209,-0.542 0.212,-0.544 0.214,-0.544L0.216,-0.544C0.229,-0.541 0.24,-0.54 0.248,-0.54L0.252,-0.54C0.26,-0.54 0.264,-0.542 0.264,-0.547C0.263,-0.555 0.263,-0.559 0.263,-0.562C0.263,-0.569 0.267,-0.573 0.273,-0.573C0.275,-0.573 0.283,-0.568 0.295,-0.556C0.307,-0.55 0.317,-0.547 0.325,-0.547C0.329,-0.547 0.333,-0.553 0.338,-0.565C0.342,-0.569 0.348,-0.571 0.355,-0.571C0.357,-0.571 0.365,-0.568 0.379,-0.561C0.382,-0.56 0.386,-0.559 0.392,-0.559C0.404,-0.559 0.411,-0.564 0.411,-0.573C0.409,-0.577 0.409,-0.58 0.409,-0.582C0.409,-0.586 0.415,-0.59 0.428,-0.594C0.435,-0.599 0.439,-0.605 0.439,-0.611C0.439,-0.62 0.431,-0.627 0.415,-0.63C0.405,-0.636 0.398,-0.645 0.393,-0.658C0.383,-0.668 0.373,-0.673 0.361,-0.673C0.347,-0.673 0.335,-0.665 0.325,-0.648C0.32,-0.643 0.316,-0.641 0.312,-0.641Z" style="fill-rule:nonzero;"/>
    </g>
    <g transform="matrix(35.6469,2.60185,-2.60185,35.6469,93.9176,26.241)">
        <path d="M0.359,-0.727L0.363,-0.727C0.366,-0.727 0.375,-0.723 0.391,-0.717C0.401,-0.716 0.411,-0.712 0.419,-0.705C0.428,-0.698 0.432,-0.689 0.432,-0.681C0.432,-0.673 0.431,-0.663 0.429,-0.652L0.429,-0.65C0.429,-0.647 0.433,-0.636 0.44,-0.615C0.443,-0.606 0.444,-0.599 0.444,-0.596L0.444,-0.595C0.441,-0.581 0.437,-0.571 0.434,-0.566C0.428,-0.561 0.419,-0.554 0.406,-0.545C0.4,-0.54 0.395,-0.535 0.393,-0.529C0.387,-0.522 0.38,-0.519 0.373,-0.519C0.363,-0.519 0.349,-0.521 0.331,-0.525C0.329,-0.525 0.323,-0.522 0.314,-0.517C0.311,-0.516 0.307,-0.515 0.301,-0.515C0.298,-0.515 0.287,-0.517 0.267,-0.521L0.266,-0.521C0.263,-0.521 0.257,-0.517 0.248,-0.511C0.236,-0.507 0.229,-0.502 0.229,-0.498C0.229,-0.494 0.229,-0.491 0.229,-0.487L0.229,-0.479C0.229,-0.47 0.231,-0.465 0.235,-0.465C0.243,-0.457 0.251,-0.448 0.259,-0.438C0.261,-0.436 0.263,-0.435 0.264,-0.435C0.278,-0.436 0.288,-0.437 0.293,-0.437L0.307,-0.437C0.308,-0.437 0.309,-0.437 0.31,-0.436C0.336,-0.445 0.353,-0.45 0.36,-0.45C0.368,-0.45 0.377,-0.447 0.385,-0.44C0.398,-0.435 0.408,-0.426 0.415,-0.414C0.422,-0.398 0.425,-0.385 0.425,-0.375C0.425,-0.372 0.423,-0.363 0.419,-0.348L0.42,-0.322C0.42,-0.314 0.414,-0.305 0.4,-0.295C0.396,-0.294 0.39,-0.292 0.382,-0.291L0.372,-0.292C0.368,-0.292 0.356,-0.288 0.336,-0.28C0.331,-0.278 0.326,-0.278 0.322,-0.278C0.311,-0.278 0.298,-0.282 0.284,-0.291C0.267,-0.284 0.253,-0.28 0.242,-0.28C0.235,-0.28 0.23,-0.279 0.229,-0.276L0.229,-0.274C0.229,-0.271 0.232,-0.256 0.237,-0.228C0.237,-0.221 0.237,-0.216 0.237,-0.211L0.237,-0.206L0.237,-0.198C0.25,-0.188 0.264,-0.183 0.281,-0.183L0.319,-0.174L0.325,-0.174C0.336,-0.174 0.352,-0.174 0.37,-0.173C0.372,-0.173 0.383,-0.175 0.404,-0.181C0.405,-0.181 0.407,-0.181 0.41,-0.181C0.423,-0.181 0.432,-0.176 0.438,-0.167C0.452,-0.158 0.462,-0.15 0.468,-0.143C0.474,-0.134 0.478,-0.123 0.478,-0.11L0.478,-0.106C0.478,-0.098 0.474,-0.086 0.467,-0.073C0.466,-0.069 0.465,-0.06 0.464,-0.046C0.46,-0.037 0.453,-0.03 0.444,-0.025C0.439,-0.024 0.432,-0.023 0.423,-0.022C0.416,-0.023 0.409,-0.023 0.402,-0.023C0.399,-0.023 0.39,-0.02 0.376,-0.014C0.373,-0.012 0.367,-0.01 0.357,-0.01C0.351,-0.01 0.338,-0.013 0.316,-0.02C0.313,-0.02 0.305,-0.014 0.291,-0.004C0.283,-0.001 0.277,-0 0.272,-0C0.247,-0 0.228,-0.007 0.214,-0.021L0.213,-0.021C0.202,-0.015 0.193,-0.013 0.188,-0.013L0.186,-0.013C0.174,-0.013 0.163,-0.019 0.15,-0.032C0.148,-0.035 0.145,-0.036 0.142,-0.037C0.129,-0.031 0.12,-0.029 0.116,-0.029L0.109,-0.029C0.101,-0.029 0.088,-0.034 0.069,-0.043C0.064,-0.044 0.061,-0.044 0.061,-0.044C0.06,-0.044 0.059,-0.044 0.059,-0.044C0.05,-0.044 0.04,-0.048 0.03,-0.057C0.019,-0.064 0.011,-0.075 0.006,-0.089C0.002,-0.099 0,-0.106 0,-0.11L0.006,-0.134L0.006,-0.137C0.006,-0.139 0.004,-0.147 0,-0.162L0,-0.17C0,-0.183 0.006,-0.198 0.018,-0.215L0.018,-0.216C0.018,-0.217 0.015,-0.223 0.009,-0.235C0.006,-0.242 0.005,-0.249 0.005,-0.256C0.005,-0.271 0.01,-0.288 0.021,-0.307C0.014,-0.319 0.011,-0.329 0.011,-0.335L0.011,-0.342C0.011,-0.353 0.018,-0.368 0.031,-0.387L0.031,-0.391C0.031,-0.392 0.029,-0.399 0.023,-0.412C0.022,-0.416 0.021,-0.421 0.021,-0.427L0.021,-0.433C0.021,-0.444 0.027,-0.46 0.038,-0.479C0.038,-0.481 0.038,-0.482 0.039,-0.482C0.034,-0.495 0.032,-0.507 0.032,-0.517L0.032,-0.519C0.032,-0.526 0.034,-0.538 0.039,-0.553L0.039,-0.556L0.033,-0.586L0.033,-0.596C0.033,-0.605 0.035,-0.617 0.04,-0.631L0.04,-0.632C0.04,-0.633 0.038,-0.638 0.035,-0.646L0.035,-0.651C0.035,-0.66 0.043,-0.668 0.061,-0.677C0.073,-0.682 0.083,-0.685 0.091,-0.685C0.097,-0.685 0.104,-0.683 0.115,-0.678C0.145,-0.693 0.171,-0.701 0.19,-0.701C0.207,-0.711 0.221,-0.715 0.231,-0.715L0.231,-0.715C0.241,-0.715 0.251,-0.711 0.261,-0.703C0.265,-0.7 0.268,-0.699 0.27,-0.699L0.273,-0.699C0.275,-0.699 0.281,-0.702 0.289,-0.707C0.293,-0.709 0.297,-0.709 0.301,-0.709C0.304,-0.709 0.311,-0.708 0.323,-0.704C0.338,-0.719 0.35,-0.727 0.359,-0.727ZM0.322,-0.66C0.32,-0.66 0.314,-0.664 0.304,-0.673C0.3,-0.674 0.298,-0.674 0.297,-0.674C0.29,-0.674 0.282,-0.668 0.273,-0.655C0.252,-0.637 0.24,-0.628 0.238,-0.628C0.234,-0.628 0.232,-0.631 0.232,-0.636C0.232,-0.641 0.237,-0.649 0.246,-0.66C0.246,-0.661 0.247,-0.664 0.247,-0.667L0.247,-0.667C0.247,-0.676 0.24,-0.681 0.227,-0.683C0.221,-0.683 0.214,-0.678 0.206,-0.669C0.202,-0.667 0.199,-0.666 0.195,-0.666L0.194,-0.666C0.187,-0.667 0.182,-0.668 0.182,-0.668L0.177,-0.668C0.159,-0.665 0.138,-0.655 0.114,-0.639C0.113,-0.639 0.112,-0.639 0.111,-0.639L0.107,-0.639C0.104,-0.639 0.098,-0.643 0.088,-0.652L0.084,-0.653C0.077,-0.653 0.073,-0.651 0.071,-0.646L0.073,-0.637L0.073,-0.633C0.073,-0.628 0.069,-0.619 0.06,-0.606C0.057,-0.601 0.056,-0.595 0.056,-0.589L0.056,-0.587C0.056,-0.581 0.061,-0.571 0.07,-0.559C0.07,-0.558 0.07,-0.557 0.07,-0.556L0.07,-0.555C0.07,-0.551 0.066,-0.543 0.057,-0.53C0.056,-0.525 0.055,-0.521 0.055,-0.519L0.055,-0.513C0.055,-0.504 0.058,-0.5 0.064,-0.5C0.065,-0.5 0.07,-0.503 0.081,-0.51L0.082,-0.51C0.084,-0.51 0.086,-0.508 0.087,-0.502C0.087,-0.496 0.076,-0.48 0.054,-0.457C0.049,-0.447 0.046,-0.437 0.046,-0.427C0.046,-0.416 0.051,-0.408 0.06,-0.401C0.064,-0.396 0.07,-0.387 0.077,-0.374C0.088,-0.36 0.093,-0.352 0.094,-0.349C0.093,-0.347 0.092,-0.346 0.09,-0.345C0.089,-0.345 0.078,-0.352 0.058,-0.367L0.056,-0.367C0.047,-0.367 0.042,-0.358 0.041,-0.339L0.041,-0.338C0.041,-0.329 0.045,-0.32 0.054,-0.311C0.057,-0.307 0.058,-0.305 0.058,-0.303C0.058,-0.301 0.053,-0.295 0.043,-0.286C0.037,-0.278 0.035,-0.269 0.035,-0.259L0.035,-0.255C0.035,-0.245 0.04,-0.236 0.049,-0.231C0.056,-0.224 0.06,-0.219 0.06,-0.217C0.06,-0.212 0.054,-0.207 0.043,-0.201C0.038,-0.195 0.034,-0.188 0.032,-0.18C0.029,-0.171 0.027,-0.165 0.027,-0.162L0.027,-0.16C0.027,-0.157 0.03,-0.15 0.037,-0.139C0.037,-0.137 0.037,-0.136 0.037,-0.136C0.037,-0.134 0.034,-0.125 0.028,-0.108L0.028,-0.1C0.028,-0.089 0.035,-0.08 0.051,-0.073L0.053,-0.073L0.067,-0.077C0.07,-0.077 0.076,-0.072 0.086,-0.062C0.092,-0.057 0.099,-0.055 0.107,-0.055L0.111,-0.055C0.117,-0.055 0.124,-0.06 0.133,-0.07C0.136,-0.071 0.138,-0.072 0.139,-0.072L0.143,-0.072C0.147,-0.072 0.154,-0.066 0.163,-0.054C0.173,-0.045 0.18,-0.041 0.186,-0.041C0.191,-0.041 0.194,-0.043 0.194,-0.048L0.194,-0.048C0.194,-0.052 0.19,-0.059 0.182,-0.071C0.182,-0.071 0.181,-0.072 0.181,-0.073C0.183,-0.078 0.186,-0.081 0.189,-0.081C0.196,-0.081 0.212,-0.065 0.239,-0.034C0.246,-0.03 0.253,-0.027 0.26,-0.027L0.264,-0.027C0.28,-0.027 0.291,-0.036 0.297,-0.053C0.302,-0.058 0.306,-0.061 0.31,-0.061C0.313,-0.06 0.315,-0.06 0.317,-0.06L0.318,-0.06L0.321,-0.061C0.321,-0.052 0.325,-0.046 0.334,-0.042C0.342,-0.038 0.349,-0.036 0.355,-0.036L0.358,-0.036C0.368,-0.036 0.377,-0.041 0.386,-0.051C0.389,-0.053 0.392,-0.054 0.396,-0.055C0.407,-0.052 0.414,-0.051 0.416,-0.051L0.421,-0.051C0.43,-0.051 0.435,-0.053 0.438,-0.059C0.437,-0.066 0.437,-0.071 0.437,-0.073C0.437,-0.077 0.441,-0.087 0.45,-0.102C0.451,-0.105 0.452,-0.108 0.452,-0.11C0.452,-0.121 0.445,-0.13 0.433,-0.136C0.424,-0.136 0.417,-0.14 0.413,-0.148C0.408,-0.15 0.405,-0.151 0.403,-0.151C0.398,-0.151 0.389,-0.148 0.375,-0.141L0.369,-0.141C0.357,-0.145 0.347,-0.147 0.339,-0.147C0.332,-0.147 0.325,-0.144 0.316,-0.138C0.313,-0.137 0.311,-0.136 0.31,-0.136C0.306,-0.136 0.302,-0.14 0.296,-0.148C0.292,-0.152 0.28,-0.153 0.262,-0.153C0.259,-0.153 0.249,-0.157 0.233,-0.164C0.212,-0.166 0.202,-0.169 0.202,-0.175L0.202,-0.181C0.207,-0.195 0.209,-0.208 0.209,-0.219C0.209,-0.241 0.206,-0.262 0.199,-0.282C0.199,-0.291 0.192,-0.308 0.178,-0.333L0.176,-0.339L0.176,-0.341C0.176,-0.343 0.177,-0.345 0.179,-0.346L0.182,-0.346C0.186,-0.343 0.192,-0.335 0.199,-0.323C0.201,-0.319 0.207,-0.318 0.215,-0.318C0.227,-0.313 0.235,-0.31 0.238,-0.31C0.241,-0.309 0.243,-0.309 0.246,-0.309C0.257,-0.309 0.264,-0.313 0.265,-0.32C0.265,-0.334 0.269,-0.341 0.276,-0.341L0.276,-0.341C0.28,-0.341 0.286,-0.334 0.294,-0.321C0.304,-0.31 0.314,-0.305 0.327,-0.305C0.333,-0.305 0.339,-0.31 0.344,-0.319C0.347,-0.322 0.351,-0.324 0.354,-0.325L0.376,-0.318C0.379,-0.318 0.38,-0.318 0.381,-0.318C0.391,-0.319 0.396,-0.323 0.396,-0.331C0.396,-0.332 0.394,-0.337 0.391,-0.345L0.391,-0.347C0.391,-0.349 0.394,-0.356 0.4,-0.367L0.4,-0.373L0.4,-0.378C0.4,-0.397 0.39,-0.409 0.37,-0.417C0.364,-0.417 0.36,-0.418 0.357,-0.418L0.353,-0.418C0.341,-0.418 0.329,-0.414 0.316,-0.405L0.313,-0.404L0.31,-0.404C0.299,-0.407 0.29,-0.408 0.285,-0.408L0.284,-0.408C0.276,-0.408 0.265,-0.405 0.253,-0.401L0.251,-0.401C0.244,-0.401 0.237,-0.41 0.232,-0.428C0.229,-0.431 0.226,-0.433 0.222,-0.433C0.215,-0.432 0.211,-0.431 0.208,-0.431C0.201,-0.435 0.197,-0.441 0.197,-0.448C0.2,-0.48 0.202,-0.501 0.202,-0.51C0.202,-0.514 0.198,-0.525 0.192,-0.542L0.192,-0.544C0.192,-0.55 0.194,-0.553 0.199,-0.553L0.202,-0.553C0.214,-0.54 0.221,-0.534 0.222,-0.534C0.223,-0.534 0.224,-0.534 0.225,-0.533C0.233,-0.533 0.237,-0.539 0.237,-0.549C0.24,-0.556 0.245,-0.56 0.252,-0.56C0.253,-0.56 0.264,-0.555 0.287,-0.544L0.292,-0.544C0.295,-0.544 0.296,-0.545 0.296,-0.547C0.288,-0.559 0.284,-0.565 0.284,-0.566C0.284,-0.568 0.285,-0.569 0.287,-0.569L0.308,-0.56L0.316,-0.56C0.321,-0.56 0.329,-0.557 0.342,-0.552C0.347,-0.551 0.352,-0.551 0.355,-0.551C0.366,-0.551 0.371,-0.553 0.371,-0.558C0.37,-0.569 0.37,-0.575 0.37,-0.575C0.371,-0.583 0.374,-0.587 0.38,-0.587L0.381,-0.587L0.398,-0.581C0.4,-0.581 0.402,-0.581 0.402,-0.581C0.413,-0.581 0.419,-0.589 0.419,-0.605C0.419,-0.612 0.413,-0.625 0.402,-0.645C0.401,-0.649 0.4,-0.652 0.4,-0.655C0.4,-0.657 0.402,-0.663 0.405,-0.673L0.405,-0.677C0.403,-0.683 0.399,-0.687 0.393,-0.687L0.378,-0.686C0.376,-0.686 0.37,-0.688 0.36,-0.692L0.357,-0.692C0.354,-0.692 0.346,-0.684 0.334,-0.666C0.329,-0.662 0.325,-0.66 0.322,-0.66Z" style="fill-rule:nonzero;"/>
    </g>
    <g transform="matrix(35.7417,0,0,35.7417,112.845,27.3448)">
        <path d="M0.217,-0.721L0.224,-0.721C0.232,-0.721 0.243,-0.717 0.256,-0.711C0.259,-0.706 0.263,-0.704 0.268,-0.704L0.27,-0.704C0.271,-0.704 0.28,-0.706 0.295,-0.711L0.306,-0.712C0.332,-0.712 0.354,-0.694 0.371,-0.658C0.371,-0.651 0.38,-0.644 0.398,-0.638C0.43,-0.616 0.445,-0.591 0.445,-0.562C0.445,-0.551 0.442,-0.537 0.435,-0.522L0.435,-0.521C0.435,-0.518 0.441,-0.51 0.453,-0.498C0.462,-0.486 0.467,-0.474 0.467,-0.464L0.467,-0.458C0.467,-0.438 0.458,-0.419 0.44,-0.399C0.433,-0.391 0.429,-0.381 0.429,-0.367C0.422,-0.348 0.412,-0.334 0.398,-0.327C0.388,-0.322 0.378,-0.32 0.367,-0.32C0.358,-0.32 0.348,-0.322 0.337,-0.325L0.334,-0.324L0.332,-0.324L0.332,-0.323C0.333,-0.321 0.34,-0.317 0.353,-0.313C0.373,-0.302 0.386,-0.292 0.39,-0.282C0.39,-0.278 0.394,-0.273 0.402,-0.266C0.418,-0.259 0.431,-0.251 0.44,-0.243C0.454,-0.229 0.462,-0.212 0.466,-0.191C0.466,-0.183 0.472,-0.177 0.486,-0.176C0.501,-0.176 0.516,-0.171 0.532,-0.163C0.546,-0.153 0.552,-0.141 0.552,-0.125C0.552,-0.123 0.552,-0.118 0.551,-0.111C0.551,-0.105 0.555,-0.096 0.563,-0.085C0.564,-0.08 0.565,-0.076 0.565,-0.074L0.565,-0.07C0.565,-0.058 0.561,-0.046 0.553,-0.035C0.547,-0.029 0.537,-0.026 0.521,-0.026L0.52,-0.026C0.513,-0.026 0.505,-0.027 0.494,-0.029C0.491,-0.029 0.483,-0.023 0.473,-0.012C0.462,-0.004 0.451,-0 0.441,-0C0.421,-0 0.403,-0.009 0.385,-0.027C0.38,-0.031 0.369,-0.034 0.354,-0.038C0.338,-0.044 0.327,-0.055 0.32,-0.07C0.317,-0.084 0.312,-0.092 0.307,-0.095C0.29,-0.104 0.28,-0.114 0.275,-0.126C0.274,-0.13 0.272,-0.139 0.271,-0.153C0.257,-0.164 0.247,-0.172 0.241,-0.178C0.231,-0.193 0.226,-0.202 0.226,-0.205L0.223,-0.205C0.222,-0.205 0.221,-0.198 0.22,-0.186C0.217,-0.183 0.216,-0.179 0.216,-0.174L0.216,-0.172C0.216,-0.169 0.222,-0.161 0.232,-0.149C0.242,-0.135 0.247,-0.122 0.247,-0.111L0.247,-0.102C0.247,-0.09 0.242,-0.076 0.232,-0.06L0.231,-0.057L0.231,-0.044C0.231,-0.029 0.224,-0.016 0.209,-0.006C0.199,-0.002 0.191,-0 0.185,-0C0.173,-0 0.158,-0.007 0.14,-0.02C0.124,-0.013 0.112,-0.01 0.104,-0.01C0.091,-0.01 0.073,-0.016 0.051,-0.029C0.044,-0.034 0.037,-0.047 0.03,-0.066C0.03,-0.068 0.027,-0.074 0.021,-0.086C0.02,-0.089 0.019,-0.092 0.019,-0.095L0.019,-0.099C0.019,-0.107 0.024,-0.119 0.033,-0.136L0.033,-0.138C0.033,-0.139 0.028,-0.145 0.019,-0.156C0.016,-0.161 0.015,-0.165 0.015,-0.169L0.015,-0.175C0.015,-0.183 0.02,-0.196 0.03,-0.215L0.03,-0.216C0.03,-0.218 0.026,-0.223 0.019,-0.233C0.014,-0.241 0.011,-0.25 0.011,-0.259L0.011,-0.264C0.011,-0.282 0.017,-0.298 0.029,-0.313C0.031,-0.315 0.031,-0.317 0.031,-0.318L0.031,-0.321C0.015,-0.336 0.007,-0.344 0.007,-0.346C0.002,-0.354 0,-0.362 0,-0.37L0,-0.374C0,-0.386 0.007,-0.403 0.02,-0.422C0.02,-0.425 0.02,-0.427 0.021,-0.428L0.009,-0.459C0.009,-0.46 0.009,-0.464 0.008,-0.469C0.008,-0.483 0.017,-0.5 0.034,-0.519C0.034,-0.521 0.034,-0.522 0.034,-0.523C0.03,-0.536 0.028,-0.546 0.028,-0.553L0.028,-0.554C0.028,-0.563 0.031,-0.574 0.037,-0.587L0.037,-0.59C0.037,-0.591 0.033,-0.597 0.025,-0.607C0.019,-0.618 0.015,-0.629 0.015,-0.639C0.015,-0.644 0.019,-0.657 0.025,-0.677C0.029,-0.683 0.036,-0.686 0.046,-0.686C0.056,-0.689 0.071,-0.696 0.09,-0.705C0.103,-0.71 0.115,-0.712 0.128,-0.712C0.14,-0.712 0.153,-0.709 0.168,-0.703L0.17,-0.703C0.173,-0.703 0.184,-0.708 0.204,-0.718C0.209,-0.72 0.214,-0.721 0.217,-0.721ZM0.166,-0.656C0.159,-0.656 0.153,-0.662 0.148,-0.673C0.145,-0.677 0.137,-0.68 0.125,-0.68C0.104,-0.68 0.088,-0.672 0.078,-0.657C0.058,-0.653 0.049,-0.648 0.049,-0.644C0.048,-0.642 0.047,-0.64 0.047,-0.637L0.047,-0.632C0.047,-0.625 0.056,-0.615 0.074,-0.601C0.076,-0.597 0.077,-0.594 0.077,-0.591C0.077,-0.586 0.073,-0.579 0.063,-0.571C0.06,-0.565 0.058,-0.558 0.058,-0.551C0.058,-0.541 0.062,-0.532 0.07,-0.526C0.074,-0.521 0.077,-0.513 0.079,-0.5C0.085,-0.488 0.088,-0.48 0.088,-0.478C0.087,-0.474 0.084,-0.472 0.081,-0.472L0.078,-0.472C0.077,-0.472 0.071,-0.478 0.06,-0.491L0.057,-0.492C0.047,-0.492 0.041,-0.483 0.039,-0.466L0.039,-0.463C0.039,-0.455 0.044,-0.446 0.054,-0.437C0.058,-0.433 0.06,-0.429 0.06,-0.425C0.06,-0.42 0.056,-0.414 0.047,-0.408C0.037,-0.396 0.031,-0.385 0.03,-0.375L0.03,-0.372C0.03,-0.359 0.041,-0.347 0.062,-0.337C0.077,-0.344 0.087,-0.348 0.091,-0.349C0.101,-0.347 0.106,-0.344 0.106,-0.34C0.106,-0.338 0.101,-0.333 0.091,-0.325C0.089,-0.325 0.082,-0.318 0.071,-0.305C0.054,-0.295 0.045,-0.285 0.045,-0.277C0.044,-0.277 0.044,-0.272 0.043,-0.261L0.043,-0.258C0.043,-0.248 0.049,-0.239 0.062,-0.231C0.066,-0.227 0.068,-0.223 0.068,-0.22L0.068,-0.217C0.068,-0.213 0.063,-0.205 0.054,-0.193C0.049,-0.185 0.047,-0.18 0.047,-0.177L0.047,-0.173C0.047,-0.167 0.054,-0.161 0.066,-0.155C0.073,-0.15 0.076,-0.145 0.076,-0.14C0.076,-0.138 0.071,-0.131 0.06,-0.119C0.055,-0.111 0.052,-0.103 0.052,-0.096L0.052,-0.096C0.052,-0.092 0.055,-0.087 0.062,-0.08C0.065,-0.075 0.066,-0.071 0.066,-0.066C0.066,-0.061 0.066,-0.058 0.066,-0.057C0.066,-0.053 0.076,-0.048 0.096,-0.041C0.1,-0.041 0.102,-0.041 0.103,-0.041C0.111,-0.041 0.117,-0.043 0.12,-0.049C0.125,-0.059 0.131,-0.064 0.139,-0.064C0.145,-0.064 0.15,-0.059 0.155,-0.047C0.164,-0.039 0.173,-0.034 0.182,-0.032L0.187,-0.032C0.195,-0.032 0.199,-0.036 0.199,-0.043L0.199,-0.049L0.195,-0.069L0.195,-0.07C0.195,-0.075 0.201,-0.081 0.214,-0.089C0.217,-0.093 0.218,-0.097 0.218,-0.102L0.218,-0.104C0.218,-0.119 0.207,-0.137 0.183,-0.157C0.177,-0.164 0.174,-0.168 0.174,-0.171L0.174,-0.171C0.174,-0.173 0.179,-0.18 0.19,-0.191C0.192,-0.196 0.193,-0.201 0.193,-0.205C0.193,-0.226 0.181,-0.242 0.158,-0.253C0.144,-0.263 0.137,-0.268 0.137,-0.27C0.139,-0.272 0.141,-0.274 0.144,-0.274L0.144,-0.274C0.162,-0.271 0.173,-0.269 0.177,-0.269C0.194,-0.269 0.206,-0.267 0.212,-0.262C0.241,-0.254 0.255,-0.248 0.255,-0.244C0.258,-0.24 0.259,-0.235 0.259,-0.228L0.259,-0.218C0.259,-0.205 0.265,-0.195 0.278,-0.186C0.281,-0.185 0.287,-0.184 0.297,-0.184C0.304,-0.18 0.307,-0.176 0.307,-0.171L0.307,-0.169L0.304,-0.144L0.304,-0.143C0.306,-0.13 0.313,-0.123 0.324,-0.123C0.325,-0.122 0.326,-0.122 0.328,-0.122L0.333,-0.123C0.342,-0.121 0.347,-0.117 0.347,-0.11L0.347,-0.093C0.347,-0.077 0.355,-0.067 0.372,-0.063L0.375,-0.063C0.377,-0.063 0.383,-0.066 0.393,-0.072L0.397,-0.072C0.403,-0.072 0.407,-0.065 0.408,-0.05C0.415,-0.038 0.425,-0.031 0.439,-0.031C0.453,-0.031 0.459,-0.037 0.459,-0.047C0.461,-0.061 0.466,-0.068 0.475,-0.068L0.477,-0.068C0.479,-0.068 0.491,-0.065 0.512,-0.06C0.518,-0.058 0.523,-0.058 0.529,-0.058C0.531,-0.06 0.533,-0.062 0.533,-0.063L0.533,-0.065C0.533,-0.071 0.529,-0.078 0.521,-0.085C0.515,-0.09 0.513,-0.095 0.513,-0.099L0.513,-0.1C0.513,-0.101 0.515,-0.107 0.519,-0.117C0.519,-0.119 0.52,-0.121 0.52,-0.123C0.52,-0.13 0.517,-0.135 0.511,-0.137C0.502,-0.141 0.484,-0.145 0.455,-0.149C0.439,-0.153 0.432,-0.158 0.432,-0.166L0.432,-0.182C0.432,-0.204 0.419,-0.221 0.395,-0.232C0.38,-0.236 0.37,-0.24 0.367,-0.244C0.365,-0.249 0.362,-0.256 0.359,-0.267C0.354,-0.276 0.341,-0.284 0.32,-0.291C0.297,-0.3 0.285,-0.305 0.284,-0.306L0.282,-0.313C0.282,-0.316 0.285,-0.322 0.29,-0.33C0.293,-0.341 0.295,-0.349 0.297,-0.354C0.302,-0.36 0.306,-0.362 0.311,-0.362L0.314,-0.362C0.316,-0.362 0.332,-0.359 0.361,-0.352L0.375,-0.351C0.387,-0.351 0.395,-0.358 0.4,-0.371L0.4,-0.378C0.4,-0.379 0.399,-0.385 0.396,-0.397L0.396,-0.397C0.396,-0.406 0.402,-0.413 0.413,-0.419C0.428,-0.435 0.436,-0.448 0.436,-0.459C0.436,-0.472 0.423,-0.487 0.397,-0.502C0.392,-0.505 0.39,-0.508 0.39,-0.512L0.39,-0.513C0.39,-0.514 0.395,-0.523 0.406,-0.539C0.41,-0.549 0.413,-0.558 0.413,-0.568C0.413,-0.588 0.401,-0.603 0.376,-0.613L0.354,-0.618C0.348,-0.621 0.344,-0.625 0.342,-0.632C0.342,-0.643 0.338,-0.655 0.33,-0.668C0.322,-0.676 0.314,-0.679 0.306,-0.679C0.298,-0.679 0.288,-0.673 0.278,-0.662C0.272,-0.658 0.267,-0.656 0.263,-0.656C0.256,-0.656 0.247,-0.664 0.236,-0.681C0.231,-0.684 0.226,-0.686 0.221,-0.686L0.216,-0.686C0.207,-0.686 0.196,-0.678 0.185,-0.664C0.178,-0.659 0.172,-0.656 0.167,-0.656L0.166,-0.656ZM0.158,-0.62L0.16,-0.62C0.163,-0.619 0.169,-0.612 0.177,-0.599C0.178,-0.597 0.182,-0.594 0.188,-0.59C0.192,-0.586 0.196,-0.58 0.201,-0.57C0.207,-0.566 0.213,-0.564 0.219,-0.564L0.222,-0.564C0.231,-0.564 0.245,-0.574 0.266,-0.592C0.27,-0.595 0.273,-0.597 0.274,-0.597C0.281,-0.596 0.284,-0.594 0.284,-0.59C0.284,-0.589 0.28,-0.582 0.271,-0.57L0.271,-0.566C0.273,-0.558 0.277,-0.554 0.282,-0.554L0.284,-0.554L0.314,-0.564L0.316,-0.564C0.326,-0.564 0.331,-0.554 0.331,-0.534C0.331,-0.53 0.332,-0.516 0.334,-0.493L0.334,-0.492C0.333,-0.482 0.33,-0.477 0.324,-0.477C0.314,-0.472 0.307,-0.464 0.302,-0.453C0.297,-0.44 0.295,-0.429 0.295,-0.419C0.289,-0.401 0.285,-0.386 0.283,-0.376C0.281,-0.375 0.28,-0.374 0.278,-0.374C0.272,-0.374 0.269,-0.381 0.267,-0.394C0.264,-0.401 0.257,-0.404 0.246,-0.404C0.233,-0.404 0.215,-0.391 0.189,-0.364C0.185,-0.361 0.181,-0.359 0.178,-0.359L0.174,-0.359C0.165,-0.359 0.16,-0.362 0.158,-0.368L0.158,-0.369C0.158,-0.371 0.161,-0.38 0.167,-0.396C0.168,-0.398 0.168,-0.401 0.168,-0.402L0.168,-0.404C0.168,-0.418 0.161,-0.431 0.146,-0.444C0.145,-0.445 0.145,-0.447 0.145,-0.449C0.145,-0.458 0.154,-0.465 0.173,-0.471C0.177,-0.475 0.179,-0.478 0.179,-0.481C0.179,-0.486 0.173,-0.495 0.161,-0.509C0.159,-0.511 0.159,-0.514 0.159,-0.515C0.159,-0.52 0.164,-0.528 0.175,-0.539C0.177,-0.54 0.177,-0.542 0.177,-0.544C0.177,-0.545 0.172,-0.551 0.162,-0.562L0.161,-0.566C0.162,-0.569 0.163,-0.572 0.163,-0.574C0.163,-0.578 0.159,-0.589 0.152,-0.608L0.152,-0.61C0.152,-0.617 0.154,-0.62 0.158,-0.62ZM0.196,-0.517C0.196,-0.516 0.199,-0.509 0.206,-0.496C0.208,-0.488 0.21,-0.481 0.211,-0.475C0.211,-0.466 0.205,-0.456 0.193,-0.446C0.192,-0.443 0.191,-0.441 0.191,-0.439L0.191,-0.434C0.194,-0.421 0.197,-0.414 0.201,-0.414L0.203,-0.414C0.205,-0.414 0.212,-0.418 0.225,-0.425C0.232,-0.428 0.24,-0.43 0.249,-0.43L0.253,-0.43C0.262,-0.43 0.267,-0.437 0.269,-0.453C0.271,-0.464 0.282,-0.48 0.3,-0.5C0.301,-0.502 0.301,-0.505 0.302,-0.508C0.302,-0.517 0.298,-0.521 0.29,-0.521C0.271,-0.521 0.26,-0.524 0.257,-0.528C0.257,-0.528 0.253,-0.531 0.247,-0.536C0.219,-0.535 0.205,-0.533 0.205,-0.53C0.199,-0.525 0.196,-0.521 0.196,-0.517Z" style="fill-rule:nonzero;"/>
    </g>
</svg>
